<svg id="Capa_1" data-name="Capa 1" xmlns="http://www.w3.org/2000/svg" viewBox="0 0 1920 1080"><defs><style>.cls-1{fill:#fff;}.cls-2{fill:#d7a2af;}</style></defs><polygon class="cls-1" points="0.5 0.5 1920.5 -8.5 1920.5 1078.5 0.5 1079.5 0.5 0.5"/><path d="M1920-8V1078L1,1079V1L1920-8m1-1L0,0V1080l1921-1V-9Z"/><path class="cls-2" d="M1920.82,1079.38,0,1080V624l144.83,82.16A267.22,267.22,0,0,0,406,707.59l72.3-40a171.77,171.77,0,0,1,159.59-3.48l166,82.53a237,237,0,0,0,179.63,12.89L1309.69,652.1A223.39,223.39,0,0,1,1476,662.78l109.55,52.45a261.58,261.58,0,0,0,293-46.23L1926,624Z"/></svg>