<svg id="visual" viewBox="0 0 900 600" width="900" height="600" xmlns="http://www.w3.org/2000/svg" xmlns:xlink="http://www.w3.org/1999/xlink" version="1.1"><g transform="translate(404.57778996859673 305.4000016572353)"><path d="M100.7 -135.2C157.3 -97.5 248.4 -103.9 284.6 -73.4C320.8 -42.9 302.1 24.6 289.6 103.7C277.1 182.7 270.8 273.4 223.6 286.6C176.3 299.7 88.2 235.4 24.7 201.4C-38.8 167.4 -77.6 163.8 -99.9 142.6C-122.3 121.3 -128.2 82.4 -147.8 43.1C-167.4 3.7 -200.7 -36.2 -211.2 -88.7C-221.8 -141.3 -209.7 -206.6 -170.7 -250.1C-131.7 -293.6 -65.8 -315.3 -21.9 -285.1C22 -255 44.1 -173 100.7 -135.2" fill="#D7A2AF"></path></g></svg>