<svg id="visual" viewBox="0 0 900 600" width="900" height="600" xmlns="http://www.w3.org/2000/svg" xmlns:xlink="http://www.w3.org/1999/xlink" version="1.1"><g transform="translate(429.0808886271693 290.63549143607116)"><path d="M125.7 -203.2C154.2 -177.4 162.4 -127.6 187.5 -82.7C212.7 -37.7 254.8 2.5 263.3 47.5C271.8 92.4 246.6 142.1 209.5 177.1C172.3 212 123.2 232.2 73.4 244C23.7 255.9 -26.8 259.4 -65.8 240.5C-104.9 221.5 -132.5 180.2 -151.8 141C-171.2 101.8 -182.1 64.8 -196.3 22.9C-210.5 -18.9 -228.1 -65.5 -221.8 -110.4C-215.5 -155.3 -185.3 -198.3 -144.4 -218.5C-103.4 -238.6 -51.7 -235.8 -1.5 -233.4C48.7 -231 97.3 -229.1 125.7 -203.2" fill="#D7A2AF"></path></g></svg>