<svg id="visual" viewBox="0 0 900 600" width="900" height="600" xmlns="http://www.w3.org/2000/svg" xmlns:xlink="http://www.w3.org/1999/xlink" version="1.1"><g transform="translate(420.59317853702964 321.2256445509753)"><path d="M185.8 -283.9C236.4 -256.6 270.1 -197.7 281.7 -138.6C293.3 -79.5 282.7 -20.2 267.6 33.7C252.5 87.6 232.8 136.2 199.4 170.3C165.9 204.4 118.7 224 69.2 241.1C19.6 258.1 -32.3 272.5 -67.9 252.3C-103.4 232.2 -122.6 177.5 -140.7 134.3C-158.8 91.1 -175.9 59.4 -194.3 19.8C-212.7 -19.9 -232.3 -67.5 -226.9 -113.7C-221.5 -160 -191 -204.9 -149 -236.2C-107 -267.6 -53.5 -285.3 7 -296.2C67.6 -307.2 135.2 -311.3 185.8 -283.9" fill="#D7A2AF"></path></g></svg>