<?xml version="1.0" encoding="utf-8"?>
<!-- Generator: Adobe Illustrator 24.1.1, SVG Export Plug-In . SVG Version: 6.00 Build 0)  -->
<svg version="1.1" id="Capa_1" xmlns="http://www.w3.org/2000/svg" xmlns:xlink="http://www.w3.org/1999/xlink" x="0px" y="0px"
	 viewBox="0 0 1144.8 262" style="enable-background:new 0 0 1144.8 262;" xml:space="preserve">
<style type="text/css">
	.st0{display:none;}
	.st1{display:inline;fill:#EEEEEE;}
	.st2{opacity:0.4;fill:#777777;enable-background:new    ;}
	.st3{opacity:0.7;fill:#E7C5CD;enable-background:new    ;}
	.st4{opacity:0.7;fill:#D7A2AF;enable-background:new    ;}
	.st5{display:none;fill:#FFFFFF;}
</style>
<image style="display:none;overflow:visible;enable-background:new    ;" width="1367" height="769" xlink:href="B58FBD89.jpg"  transform="matrix(0.9991 0 0 0.9991 -88.9066 -316.2688)">
</image>
<g id="Capa_2_1_" class="st0">
	<rect y="14" class="st1" width="1144.8" height="291.2"/>
</g>
<path class="st2" d="M0,262C0,184.5,0,107,0,29.4h210c37.6,0,72.5,16.6,89.5,43.5c0.4,0.7,0.9,1.4,1.3,2.1
	c5.1,8.5,16.9,28.1,14,49.9c-0.5,3.9-1.8,10-2,19.6c-0.2,9.4-0.4,18.6,3,26.8c5.4,12.9,18.4,20.1,26,24.4
	c24.4,13.8,62.3,36.9,111.5,66.5H0z"/>
<path class="st3" d="M0,262C0,184.5,0,107-0.2,29.3c61.6,0,146.1-41.9,188.5-6.7c3.8,3.2,6.8,6.9,9.2,10.9c7,12,17.1,27.9,31.4,45.6
	c18.6,23,32.4,40.1,57.8,56.3c25.7,16.4,50.2,23.6,72,30c27.4,8,32.3,6.4,79.5,15.6c61.6,12.1,92.9,18.4,117,35.4
	c21.7,15.3,32.6,33.5,38.3,45.7H0z"/>
<path class="st4" d="M1144.8,262c-381.6,0-763.2,0-1144.8,0C0,184.5,0,98.2-0.3,20.5C27.4,22,44,23.7,73.5,29.3
	c22,4,47.6,10.7,74.3,22.2c12.7,5.4,32.6,15,54,30c20.9,14.6,25.2,21.8,44.3,37.8c20.6,17.2,40.4,33.8,69,45.5
	c6.6,2.7,62.9,25,125.3,13.2c21.3-4,30.1-9.5,60.8-13.2c31.7-3.8,52.2-1.6,59.3-0.6c22.9,3,39.1,9.2,45,11.4
	c0,0.1,16.4,6.2,154.5,47.4c61.1,18.2,114.7,21.3,222,27.6c63.8,3.7,119.1,3.7,162.8,2.4C1144.8,256,1144.8,259,1144.8,262z"/>
<polygon class="st5" points="1146.1,13.1 1.4,13.1 -1.4,17.9 1143.4,17.9 "/>
</svg>
