<svg id="visual" viewBox="0 0 540 960" width="540" height="960" xmlns="http://www.w3.org/2000/svg" xmlns:xlink="http://www.w3.org/1999/xlink" version="1.1"><g stroke-width="1" stroke-linejoin="bevel"><path d="M273 478.2L260.4 473.8L258 505.8Z" fill="#b48a94" stroke="#b48a94"></path><path d="M226.9 444.8L227.4 456.2L260.4 473.8Z" fill="#c596a2" stroke="#c596a2"></path><path d="M260.4 473.8L227.4 456.2L258 505.8Z" fill="#c596a2" stroke="#c596a2"></path><path d="M258 505.8L310.1 491.8L273 478.2Z" fill="#51484a" stroke="#51484a"></path><path d="M257 405L226.9 444.8L260.4 473.8Z" fill="#333333" stroke="#333333"></path><path d="M310.1 491.8L314.6 490.2L273 478.2Z" fill="#715d62" stroke="#715d62"></path><path d="M257 405L260.4 473.8L310.6 417.4Z" fill="#333333" stroke="#333333"></path><path d="M258 505.8L307.6 542.6L310.1 491.8Z" fill="#333333" stroke="#333333"></path><path d="M310.1 491.8L328.1 533.2L314.6 490.2Z" fill="#615256" stroke="#615256"></path><path d="M173.3 533.6L250.4 565L258 505.8Z" fill="#c596a2" stroke="#c596a2"></path><path d="M258 505.8L277 569L307.6 542.6Z" fill="#a27f87" stroke="#a27f87"></path><path d="M226.9 444.8L184.9 479.2L227.4 456.2Z" fill="#c596a2" stroke="#c596a2"></path><path d="M227.4 456.2L184.9 479.2L258 505.8Z" fill="#423d3e" stroke="#423d3e"></path><path d="M307.6 542.6L328.1 533.2L310.1 491.8Z" fill="#c596a2" stroke="#c596a2"></path><path d="M250.4 565L277 569L258 505.8Z" fill="#a27f87" stroke="#a27f87"></path><path d="M307.6 542.6L343.7 576.6L328.1 533.2Z" fill="#d7a2af" stroke="#d7a2af"></path><path d="M310.6 417.4L260.4 473.8L273 478.2Z" fill="#c596a2" stroke="#c596a2"></path><path d="M152.3 481.8L166.3 484.2L159.7 443.4Z" fill="#d7a2af" stroke="#d7a2af"></path><path d="M353.6 464.8L310.6 417.4L314.6 490.2Z" fill="#92737b" stroke="#92737b"></path><path d="M314.6 490.2L310.6 417.4L273 478.2Z" fill="#a27f87" stroke="#a27f87"></path><path d="M306.1 609.8L286.6 574L298 623.4Z" fill="#615256" stroke="#615256"></path><path d="M277 569L299 570.6L307.6 542.6Z" fill="#a27f87" stroke="#a27f87"></path><path d="M286.6 574L299 570.6L277 569Z" fill="#b48a94" stroke="#b48a94"></path><path d="M356.7 539.2L353.6 464.8L314.6 490.2Z" fill="#81686e" stroke="#81686e"></path><path d="M166.3 484.2L184.9 479.2L159.7 443.4Z" fill="#51484a" stroke="#51484a"></path><path d="M184.9 479.2L173.3 533.6L258 505.8Z" fill="#333333" stroke="#333333"></path><path d="M166.3 484.2L173.3 533.6L184.9 479.2Z" fill="#715d62" stroke="#715d62"></path><path d="M310.6 417.4L278 392.4L257 405Z" fill="#c596a2" stroke="#c596a2"></path><path d="M278 392.4L266.4 390.4L257 405Z" fill="#715d62" stroke="#715d62"></path><path d="M159.7 443.4L184.9 479.2L226.9 444.8Z" fill="#a27f87" stroke="#a27f87"></path><path d="M173.3 533.6L214.4 582.6L250.4 565Z" fill="#51484a" stroke="#51484a"></path><path d="M298 623.4L286.6 574L255.4 628.4Z" fill="#715d62" stroke="#715d62"></path><path d="M310.6 417.4L286 388.6L278 392.4Z" fill="#715d62" stroke="#715d62"></path><path d="M278 392.4L286 388.6L266.4 390.4Z" fill="#51484a" stroke="#51484a"></path><path d="M307.6 356L286 388.6L337.1 367Z" fill="#615256" stroke="#615256"></path><path d="M343.7 576.6L356.7 539.2L328.1 533.2Z" fill="#615256" stroke="#615256"></path><path d="M328.1 533.2L356.7 539.2L314.6 490.2Z" fill="#b48a94" stroke="#b48a94"></path><path d="M353.6 464.8L338.7 415.4L310.6 417.4Z" fill="#715d62" stroke="#715d62"></path><path d="M159.7 443.4L226.9 444.8L163.9 407.4Z" fill="#c596a2" stroke="#c596a2"></path><path d="M166.3 484.2L152.3 481.8L173.3 533.6Z" fill="#615256" stroke="#615256"></path><path d="M229.9 382L226.9 444.8L257 405Z" fill="#715d62" stroke="#715d62"></path><path d="M230.4 377L229.9 382L266.4 390.4Z" fill="#615256" stroke="#615256"></path><path d="M266.4 390.4L229.9 382L257 405Z" fill="#a27f87" stroke="#a27f87"></path><path d="M246.4 307.8L230.4 377L266.4 390.4Z" fill="#333333" stroke="#333333"></path><path d="M229.9 382L163.9 407.4L226.9 444.8Z" fill="#333333" stroke="#333333"></path><path d="M173.3 533.6L201.9 593L214.4 582.6Z" fill="#92737b" stroke="#92737b"></path><path d="M286.6 574L277 569L255.4 628.4Z" fill="#92737b" stroke="#92737b"></path><path d="M342.1 599L343.7 576.6L299 570.6Z" fill="#d7a2af" stroke="#d7a2af"></path><path d="M299 570.6L343.7 576.6L307.6 542.6Z" fill="#615256" stroke="#615256"></path><path d="M306.1 609.8L299 570.6L286.6 574Z" fill="#c596a2" stroke="#c596a2"></path><path d="M159.7 443.4L136.7 470.2L152.3 481.8Z" fill="#615256" stroke="#615256"></path><path d="M152.3 481.8L130.7 492.6L173.3 533.6Z" fill="#b48a94" stroke="#b48a94"></path><path d="M173.3 533.6L149.9 580.6L201.9 593Z" fill="#333333" stroke="#333333"></path><path d="M277 569L250.4 565L255.4 628.4Z" fill="#333333" stroke="#333333"></path><path d="M202.9 349.6L163.9 407.4L229.9 382Z" fill="#615256" stroke="#615256"></path><path d="M159.7 443.4L117.1 428.8L136.7 470.2Z" fill="#423d3e" stroke="#423d3e"></path><path d="M136.7 470.2L130.7 492.6L152.3 481.8Z" fill="#423d3e" stroke="#423d3e"></path><path d="M342.1 599L362.1 577.6L343.7 576.6Z" fill="#b48a94" stroke="#b48a94"></path><path d="M343.7 576.6L362.1 577.6L356.7 539.2Z" fill="#c596a2" stroke="#c596a2"></path><path d="M409.3 456.4L384.7 428.8L353.6 464.8Z" fill="#81686e" stroke="#81686e"></path><path d="M130.7 492.6L136.7 538L173.3 533.6Z" fill="#b48a94" stroke="#b48a94"></path><path d="M298 623.4L309.6 615.4L306.1 609.8Z" fill="#c596a2" stroke="#c596a2"></path><path d="M306.1 609.8L342.1 599L299 570.6Z" fill="#b48a94" stroke="#b48a94"></path><path d="M309.6 615.4L342.1 599L306.1 609.8Z" fill="#92737b" stroke="#92737b"></path><path d="M409.3 456.4L353.6 464.8L420.9 514.6Z" fill="#51484a" stroke="#51484a"></path><path d="M353.6 464.8L384.7 428.8L338.7 415.4Z" fill="#b48a94" stroke="#b48a94"></path><path d="M337.1 367L286 388.6L310.6 417.4Z" fill="#81686e" stroke="#81686e"></path><path d="M255.4 628.4L250.4 565L214.4 582.6Z" fill="#615256" stroke="#615256"></path><path d="M309.6 615.4L324.1 631.4L342.1 599Z" fill="#333333" stroke="#333333"></path><path d="M234.4 629.8L255.4 628.4L214.4 582.6Z" fill="#b48a94" stroke="#b48a94"></path><path d="M384.7 428.8L365.1 394.4L338.7 415.4Z" fill="#715d62" stroke="#715d62"></path><path d="M286 388.6L307.6 356L266.4 390.4Z" fill="#715d62" stroke="#715d62"></path><path d="M337.1 367L310.6 417.4L338.7 415.4Z" fill="#615256" stroke="#615256"></path><path d="M201.9 593L234.4 629.8L214.4 582.6Z" fill="#a27f87" stroke="#a27f87"></path><path d="M205.9 630.4L234.4 629.8L201.9 593Z" fill="#715d62" stroke="#715d62"></path><path d="M136.7 538L149.9 580.6L173.3 533.6Z" fill="#615256" stroke="#615256"></path><path d="M365.1 394.4L337.1 367L338.7 415.4Z" fill="#715d62" stroke="#715d62"></path><path d="M324.1 631.4L314 625.8L297.6 666.2Z" fill="#c596a2" stroke="#c596a2"></path><path d="M298 623.4L314 625.8L309.6 615.4Z" fill="#715d62" stroke="#715d62"></path><path d="M314 625.8L298 623.4L297.6 666.2Z" fill="#615256" stroke="#615256"></path><path d="M397.7 613.4L387.7 564L362.1 577.6Z" fill="#333333" stroke="#333333"></path><path d="M362.1 577.6L387.7 564L356.7 539.2Z" fill="#c596a2" stroke="#c596a2"></path><path d="M397.7 613.4L362.1 577.6L342.1 599Z" fill="#81686e" stroke="#81686e"></path><path d="M174.3 617L205.9 630.4L201.9 593Z" fill="#423d3e" stroke="#423d3e"></path><path d="M420.9 514.6L353.6 464.8L356.7 539.2Z" fill="#92737b" stroke="#92737b"></path><path d="M392.7 339.6L355.1 360.6L365.1 394.4Z" fill="#333333" stroke="#333333"></path><path d="M246.4 307.8L202.9 349.6L230.4 377Z" fill="#423d3e" stroke="#423d3e"></path><path d="M230.4 377L202.9 349.6L229.9 382Z" fill="#715d62" stroke="#715d62"></path><path d="M134.3 606.8L147.7 593.4L149.9 580.6Z" fill="#92737b" stroke="#92737b"></path><path d="M149.9 580.6L174.3 617L201.9 593Z" fill="#333333" stroke="#333333"></path><path d="M337.1 367L324.6 349.2L307.6 356Z" fill="#81686e" stroke="#81686e"></path><path d="M215.4 306.6L195.3 341.6L202.9 349.6Z" fill="#423d3e" stroke="#423d3e"></path><path d="M355.1 360.6L324.6 349.2L337.1 367Z" fill="#715d62" stroke="#715d62"></path><path d="M147.7 593.4L174.3 617L149.9 580.6Z" fill="#81686e" stroke="#81686e"></path><path d="M277 662.2L298 623.4L255.4 628.4Z" fill="#333333" stroke="#333333"></path><path d="M314 625.8L324.1 631.4L309.6 615.4Z" fill="#81686e" stroke="#81686e"></path><path d="M277 662.2L255.4 628.4L234.4 629.8Z" fill="#81686e" stroke="#81686e"></path><path d="M118.3 419.4L159.7 443.4L163.9 407.4Z" fill="#333333" stroke="#333333"></path><path d="M118.3 419.4L117.1 428.8L159.7 443.4Z" fill="#a27f87" stroke="#a27f87"></path><path d="M98.7 487.8L102.1 512.6L130.7 492.6Z" fill="#423d3e" stroke="#423d3e"></path><path d="M130.7 492.6L102.1 512.6L136.7 538Z" fill="#a27f87" stroke="#a27f87"></path><path d="M435.3 569.4L407.3 549.6L387.7 564Z" fill="#81686e" stroke="#81686e"></path><path d="M387.7 564L407.3 549.6L356.7 539.2Z" fill="#b48a94" stroke="#b48a94"></path><path d="M428.7 409L365.1 394.4L384.7 428.8Z" fill="#92737b" stroke="#92737b"></path><path d="M365.1 394.4L355.1 360.6L337.1 367Z" fill="#92737b" stroke="#92737b"></path><path d="M107.3 365L118.3 419.4L163.9 407.4Z" fill="#81686e" stroke="#81686e"></path><path d="M407.3 549.6L420.9 514.6L356.7 539.2Z" fill="#615256" stroke="#615256"></path><path d="M98.7 487.8L136.7 470.2L95.1 455.4Z" fill="#b48a94" stroke="#b48a94"></path><path d="M98.7 487.8L130.7 492.6L136.7 470.2Z" fill="#715d62" stroke="#715d62"></path><path d="M93.1 598L134.3 606.8L149.9 580.6Z" fill="#92737b" stroke="#92737b"></path><path d="M246.4 307.8L266.4 390.4L307.6 356Z" fill="#333333" stroke="#333333"></path><path d="M202.9 349.6L195.3 341.6L163.9 407.4Z" fill="#b48a94" stroke="#b48a94"></path><path d="M95.1 455.4L136.7 470.2L117.1 428.8Z" fill="#423d3e" stroke="#423d3e"></path><path d="M317.1 309.8L309.6 330.6L342.1 307.2Z" fill="#423d3e" stroke="#423d3e"></path><path d="M324.6 349.2L309.6 330.6L307.6 356Z" fill="#d7a2af" stroke="#d7a2af"></path><path d="M317.1 309.8L308 327.2L309.6 330.6Z" fill="#81686e" stroke="#81686e"></path><path d="M309.6 330.6L308 327.2L307.6 356Z" fill="#715d62" stroke="#715d62"></path><path d="M118.3 419.4L95.1 455.4L117.1 428.8Z" fill="#333333" stroke="#333333"></path><path d="M199.3 655.4L234.4 629.8L205.9 630.4Z" fill="#715d62" stroke="#715d62"></path><path d="M223.4 683.2L277 662.2L234.4 629.8Z" fill="#615256" stroke="#615256"></path><path d="M147.7 593.4L134.3 606.8L174.3 617Z" fill="#b48a94" stroke="#b48a94"></path><path d="M174.3 617L199.3 655.4L205.9 630.4Z" fill="#c596a2" stroke="#c596a2"></path><path d="M93.1 598L149.9 580.6L136.7 538Z" fill="#b48a94" stroke="#b48a94"></path><path d="M134.3 658.2L199.3 655.4L174.3 617Z" fill="#333333" stroke="#333333"></path><path d="M267 700.6L297.6 666.2L277 662.2Z" fill="#a27f87" stroke="#a27f87"></path><path d="M277 662.2L297.6 666.2L298 623.4Z" fill="#a27f87" stroke="#a27f87"></path><path d="M324.1 631.4L397.7 613.4L342.1 599Z" fill="#a27f87" stroke="#a27f87"></path><path d="M420.9 514.6L441.3 460.8L409.3 456.4Z" fill="#b48a94" stroke="#b48a94"></path><path d="M409.3 456.4L428.7 409L384.7 428.8Z" fill="#a27f87" stroke="#a27f87"></path><path d="M308 327.2L246.4 307.8L307.6 356Z" fill="#d7a2af" stroke="#d7a2af"></path><path d="M411.7 649.8L397.7 613.4L324.1 631.4Z" fill="#d7a2af" stroke="#d7a2af"></path><path d="M407.3 549.6L454.3 541.2L420.9 514.6Z" fill="#b48a94" stroke="#b48a94"></path><path d="M420.9 514.6L452.9 468.2L441.3 460.8Z" fill="#615256" stroke="#615256"></path><path d="M441.3 460.8L428.7 409L409.3 456.4Z" fill="#b48a94" stroke="#b48a94"></path><path d="M342.1 307.2L309.6 330.6L324.6 349.2Z" fill="#51484a" stroke="#51484a"></path><path d="M342.1 307.2L324.6 349.2L355.1 360.6Z" fill="#b48a94" stroke="#b48a94"></path><path d="M308 327.2L296.6 296.8L246.4 307.8Z" fill="#51484a" stroke="#51484a"></path><path d="M246.4 307.8L215.4 306.6L202.9 349.6Z" fill="#92737b" stroke="#92737b"></path><path d="M120.7 342L107.3 365L163.9 407.4Z" fill="#a27f87" stroke="#a27f87"></path><path d="M230 270.4L215.4 306.6L246.4 307.8Z" fill="#333333" stroke="#333333"></path><path d="M177.9 716.2L208.9 671.8L199.3 655.4Z" fill="#81686e" stroke="#81686e"></path><path d="M199.3 655.4L208.9 671.8L234.4 629.8Z" fill="#a27f87" stroke="#a27f87"></path><path d="M425.3 597L435.3 569.4L387.7 564Z" fill="#c596a2" stroke="#c596a2"></path><path d="M98.7 487.8L75.1 531.2L102.1 512.6Z" fill="#81686e" stroke="#81686e"></path><path d="M102.1 512.6L75.1 531.2L136.7 538Z" fill="#92737b" stroke="#92737b"></path><path d="M28.6 525.2L75.1 531.2L98.7 487.8Z" fill="#a27f87" stroke="#a27f87"></path><path d="M462.4 491.8L452.9 468.2L420.9 514.6Z" fill="#615256" stroke="#615256"></path><path d="M441.3 460.8L493.9 440.4L428.7 409Z" fill="#51484a" stroke="#51484a"></path><path d="M397.7 613.4L425.3 597L387.7 564Z" fill="#b48a94" stroke="#b48a94"></path><path d="M317.1 309.8L296.6 296.8L308 327.2Z" fill="#b48a94" stroke="#b48a94"></path><path d="M208.9 671.8L223.4 683.2L234.4 629.8Z" fill="#333333" stroke="#333333"></path><path d="M120.7 342L163.9 407.4L195.3 341.6Z" fill="#51484a" stroke="#51484a"></path><path d="M118.3 419.4L82.1 368.6L95.1 455.4Z" fill="#92737b" stroke="#92737b"></path><path d="M0 472.8L28.6 525.2L98.7 487.8Z" fill="#615256" stroke="#615256"></path><path d="M492.9 585L454.3 541.2L435.3 569.4Z" fill="#d7a2af" stroke="#d7a2af"></path><path d="M435.3 569.4L454.3 541.2L407.3 549.6Z" fill="#a27f87" stroke="#a27f87"></path><path d="M428.7 409L392.7 339.6L365.1 394.4Z" fill="#615256" stroke="#615256"></path><path d="M317.1 309.8L342.1 307.2L296.6 296.8Z" fill="#81686e" stroke="#81686e"></path><path d="M392.7 339.6L342.1 307.2L355.1 360.6Z" fill="#d7a2af" stroke="#d7a2af"></path><path d="M75.1 531.2L93.1 598L136.7 538Z" fill="#b48a94" stroke="#b48a94"></path><path d="M134.3 606.8L134.3 658.2L174.3 617Z" fill="#81686e" stroke="#81686e"></path><path d="M208.9 671.8L190.9 724.6L223.4 683.2Z" fill="#615256" stroke="#615256"></path><path d="M454.3 541.2L462.4 491.8L420.9 514.6Z" fill="#615256" stroke="#615256"></path><path d="M150.3 312.8L120.7 342L195.3 341.6Z" fill="#615256" stroke="#615256"></path><path d="M194.3 276.4L150.3 312.8L215.4 306.6Z" fill="#423d3e" stroke="#423d3e"></path><path d="M215.4 306.6L150.3 312.8L195.3 341.6Z" fill="#92737b" stroke="#92737b"></path><path d="M223.4 683.2L267 700.6L277 662.2Z" fill="#b48a94" stroke="#b48a94"></path><path d="M297.6 666.2L342.1 687.2L324.1 631.4Z" fill="#b48a94" stroke="#b48a94"></path><path d="M397.7 613.4L411.7 649.8L425.3 597Z" fill="#615256" stroke="#615256"></path><path d="M89.1 639.4L134.3 658.2L134.3 606.8Z" fill="#615256" stroke="#615256"></path><path d="M223.4 683.2L207.4 749L267 700.6Z" fill="#51484a" stroke="#51484a"></path><path d="M323.6 698.8L342.1 687.2L297.6 666.2Z" fill="#c596a2" stroke="#c596a2"></path><path d="M113.1 314.2L91.7 359.6L120.7 342Z" fill="#c596a2" stroke="#c596a2"></path><path d="M120.7 342L91.7 359.6L107.3 365Z" fill="#51484a" stroke="#51484a"></path><path d="M107.3 365L82.1 368.6L118.3 419.4Z" fill="#51484a" stroke="#51484a"></path><path d="M85.1 364L82.1 368.6L107.3 365Z" fill="#715d62" stroke="#715d62"></path><path d="M61.6 356L85.1 364L60.6 340.2Z" fill="#333333" stroke="#333333"></path><path d="M91.7 359.6L85.1 364L107.3 365Z" fill="#92737b" stroke="#92737b"></path><path d="M267 700.6L323.6 698.8L297.6 666.2Z" fill="#423d3e" stroke="#423d3e"></path><path d="M415.7 676.2L411.7 649.8L342.1 687.2Z" fill="#92737b" stroke="#92737b"></path><path d="M342.1 687.2L411.7 649.8L324.1 631.4Z" fill="#615256" stroke="#615256"></path><path d="M425.3 597L467.4 612L435.3 569.4Z" fill="#d7a2af" stroke="#d7a2af"></path><path d="M75.1 531.2L63.6 584L93.1 598Z" fill="#333333" stroke="#333333"></path><path d="M93.1 598L89.1 639.4L134.3 606.8Z" fill="#d7a2af" stroke="#d7a2af"></path><path d="M56.6 571.4L63.6 584L75.1 531.2Z" fill="#c596a2" stroke="#c596a2"></path><path d="M493.9 392L452.3 378.6L428.7 409Z" fill="#81686e" stroke="#81686e"></path><path d="M428.7 409L452.3 378.6L392.7 339.6Z" fill="#423d3e" stroke="#423d3e"></path><path d="M493.9 440.4L441.3 460.8L452.9 468.2Z" fill="#92737b" stroke="#92737b"></path><path d="M28.6 525.2L56.6 571.4L75.1 531.2Z" fill="#c596a2" stroke="#c596a2"></path><path d="M267 257.8L246.4 307.8L296.6 296.8Z" fill="#333333" stroke="#333333"></path><path d="M267 257.8L230 270.4L246.4 307.8Z" fill="#333333" stroke="#333333"></path><path d="M209.9 265.2L194.3 276.4L215.4 306.6Z" fill="#81686e" stroke="#81686e"></path><path d="M150.3 312.8L113.1 314.2L120.7 342Z" fill="#81686e" stroke="#81686e"></path><path d="M223.4 238.4L223.4 267.2L228.9 236.8Z" fill="#c596a2" stroke="#c596a2"></path><path d="M230 270.4L223.4 267.2L215.4 306.6Z" fill="#81686e" stroke="#81686e"></path><path d="M63.6 584L89.1 639.4L93.1 598Z" fill="#81686e" stroke="#81686e"></path><path d="M77.7 665.8L89.1 639.4L50.6 663.8Z" fill="#715d62" stroke="#715d62"></path><path d="M85.1 364L61.6 356L82.1 368.6Z" fill="#715d62" stroke="#715d62"></path><path d="M118.7 292.8L113.1 314.2L150.3 312.8Z" fill="#51484a" stroke="#51484a"></path><path d="M223.4 267.2L209.9 265.2L215.4 306.6Z" fill="#615256" stroke="#615256"></path><path d="M147.9 242.4L118.7 292.8L150.3 312.8Z" fill="#d7a2af" stroke="#d7a2af"></path><path d="M267 257.8L296.6 296.8L346.7 221.4Z" fill="#715d62" stroke="#715d62"></path><path d="M273.6 224.4L267 257.8L346.7 221.4Z" fill="#715d62" stroke="#715d62"></path><path d="M223.4 267.2L223.4 238.4L209.9 265.2Z" fill="#c596a2" stroke="#c596a2"></path><path d="M452.3 378.6L442.9 341.6L392.7 339.6Z" fill="#a27f87" stroke="#a27f87"></path><path d="M392.7 339.6L420.7 293.8L342.1 307.2Z" fill="#81686e" stroke="#81686e"></path><path d="M479.4 376L452.3 357L452.3 378.6Z" fill="#c596a2" stroke="#c596a2"></path><path d="M442.9 341.6L419.9 318.2L392.7 339.6Z" fill="#92737b" stroke="#92737b"></path><path d="M452.3 357L442.9 341.6L452.3 378.6Z" fill="#81686e" stroke="#81686e"></path><path d="M0 472.8L98.7 487.8L95.1 455.4Z" fill="#a27f87" stroke="#a27f87"></path><path d="M0 649.4L50.6 663.8L63.6 584Z" fill="#615256" stroke="#615256"></path><path d="M351.1 735.6L353.6 707.6L323.6 698.8Z" fill="#715d62" stroke="#715d62"></path><path d="M323.6 698.8L353.6 707.6L342.1 687.2Z" fill="#51484a" stroke="#51484a"></path><path d="M415.7 676.2L435.3 650.8L411.7 649.8Z" fill="#92737b" stroke="#92737b"></path><path d="M411.7 649.8L435.3 650.8L425.3 597Z" fill="#b48a94" stroke="#b48a94"></path><path d="M504.9 469.8L452.9 468.2L462.4 491.8Z" fill="#51484a" stroke="#51484a"></path><path d="M504.9 469.8L493.9 440.4L452.9 468.2Z" fill="#423d3e" stroke="#423d3e"></path><path d="M504.9 469.8L462.4 491.8L540 495.6Z" fill="#92737b" stroke="#92737b"></path><path d="M435.3 650.8L467.4 612L425.3 597Z" fill="#715d62" stroke="#715d62"></path><path d="M60.6 340.2L85.1 364L91.7 359.6Z" fill="#a27f87" stroke="#a27f87"></path><path d="M0 412.4L2.6 455.8L95.1 455.4Z" fill="#92737b" stroke="#92737b"></path><path d="M89.1 639.4L121.7 686.2L134.3 658.2Z" fill="#51484a" stroke="#51484a"></path><path d="M134.3 658.2L177.9 716.2L199.3 655.4Z" fill="#81686e" stroke="#81686e"></path><path d="M121.7 686.2L177.9 716.2L134.3 658.2Z" fill="#615256" stroke="#615256"></path><path d="M275.4 766.6L351.1 735.6L323.6 698.8Z" fill="#423d3e" stroke="#423d3e"></path><path d="M353.6 707.6L415.7 676.2L342.1 687.2Z" fill="#615256" stroke="#615256"></path><path d="M508.4 579.6L492.9 585L496.9 607.4Z" fill="#51484a" stroke="#51484a"></path><path d="M147.9 242.4L150.3 312.8L194.3 276.4Z" fill="#423d3e" stroke="#423d3e"></path><path d="M113.1 314.2L60.6 340.2L91.7 359.6Z" fill="#51484a" stroke="#51484a"></path><path d="M540 495.6L462.4 491.8L540 532Z" fill="#92737b" stroke="#92737b"></path><path d="M207.4 749L190.9 724.6L155.9 767.4Z" fill="#81686e" stroke="#81686e"></path><path d="M177.9 716.2L190.9 724.6L208.9 671.8Z" fill="#a27f87" stroke="#a27f87"></path><path d="M493.9 392L428.7 409L493.9 440.4Z" fill="#b48a94" stroke="#b48a94"></path><path d="M493.9 392L479.4 376L452.3 378.6Z" fill="#b48a94" stroke="#b48a94"></path><path d="M452.3 357L453.9 307.8L442.9 341.6Z" fill="#81686e" stroke="#81686e"></path><path d="M453.9 307.8L420.7 293.8L419.9 318.2Z" fill="#423d3e" stroke="#423d3e"></path><path d="M118.7 292.8L111.3 295.2L113.1 314.2Z" fill="#d7a2af" stroke="#d7a2af"></path><path d="M504.9 469.8L502.4 437.4L493.9 440.4Z" fill="#715d62" stroke="#715d62"></path><path d="M0 523.6L18.6 536.6L28.6 525.2Z" fill="#c596a2" stroke="#c596a2"></path><path d="M28.6 525.2L18.6 536.6L56.6 571.4Z" fill="#333333" stroke="#333333"></path><path d="M492.9 585L467.4 612L496.9 607.4Z" fill="#715d62" stroke="#715d62"></path><path d="M467.4 612L492.9 585L435.3 569.4Z" fill="#a27f87" stroke="#a27f87"></path><path d="M68.7 300.2L60.6 340.2L113.1 314.2Z" fill="#615256" stroke="#615256"></path><path d="M0 412.4L95.1 455.4L82.1 368.6Z" fill="#333333" stroke="#333333"></path><path d="M502.4 437.4L493.9 392L493.9 440.4Z" fill="#615256" stroke="#615256"></path><path d="M453.9 307.8L452.3 357L479.4 376Z" fill="#a27f87" stroke="#a27f87"></path><path d="M453.9 307.8L419.9 318.2L442.9 341.6Z" fill="#333333" stroke="#333333"></path><path d="M419.9 318.2L420.7 293.8L392.7 339.6Z" fill="#b48a94" stroke="#b48a94"></path><path d="M228.9 236.8L223.4 267.2L230 270.4Z" fill="#81686e" stroke="#81686e"></path><path d="M209.9 265.2L147.9 242.4L194.3 276.4Z" fill="#615256" stroke="#615256"></path><path d="M76.7 260.4L68.7 300.2L111.3 295.2Z" fill="#81686e" stroke="#81686e"></path><path d="M228.9 236.8L230 270.4L267 257.8Z" fill="#51484a" stroke="#51484a"></path><path d="M89.1 639.4L77.7 665.8L121.7 686.2Z" fill="#333333" stroke="#333333"></path><path d="M121.7 686.2L115.7 708.6L177.9 716.2Z" fill="#333333" stroke="#333333"></path><path d="M50.6 663.8L89.1 639.4L63.6 584Z" fill="#d7a2af" stroke="#d7a2af"></path><path d="M273.6 224.4L228.9 236.8L267 257.8Z" fill="#715d62" stroke="#715d62"></path><path d="M275.4 766.6L323.6 698.8L267 700.6Z" fill="#51484a" stroke="#51484a"></path><path d="M418.7 727.6L442.3 694.2L415.7 676.2Z" fill="#333333" stroke="#333333"></path><path d="M0 412.4L82.1 368.6L61.6 356Z" fill="#d7a2af" stroke="#d7a2af"></path><path d="M2.6 455.8L0 472.8L95.1 455.4Z" fill="#a27f87" stroke="#a27f87"></path><path d="M0 472.8L0 507.2L28.6 525.2Z" fill="#81686e" stroke="#81686e"></path><path d="M0 574L63.6 584L56.6 571.4Z" fill="#a27f87" stroke="#a27f87"></path><path d="M496.9 607.4L467.4 612L516.4 631.8Z" fill="#81686e" stroke="#81686e"></path><path d="M492.9 585L508.4 579.6L454.3 541.2Z" fill="#333333" stroke="#333333"></path><path d="M516.4 631.8L467.4 612L471.9 693.8Z" fill="#615256" stroke="#615256"></path><path d="M442.3 694.2L435.3 650.8L415.7 676.2Z" fill="#c596a2" stroke="#c596a2"></path><path d="M90.1 694.8L115.7 708.6L121.7 686.2Z" fill="#d7a2af" stroke="#d7a2af"></path><path d="M0 507.2L0 523.6L28.6 525.2Z" fill="#d7a2af" stroke="#d7a2af"></path><path d="M155.9 767.4L190.9 724.6L177.9 716.2Z" fill="#333333" stroke="#333333"></path><path d="M190.9 724.6L207.4 749L223.4 683.2Z" fill="#a27f87" stroke="#a27f87"></path><path d="M513.4 279.8L453.9 307.8L544.4 305.6Z" fill="#d7a2af" stroke="#d7a2af"></path><path d="M346.7 221.4L342.1 307.2L420.7 293.8Z" fill="#333333" stroke="#333333"></path><path d="M346.7 221.4L296.6 296.8L342.1 307.2Z" fill="#92737b" stroke="#92737b"></path><path d="M77.7 665.8L90.1 694.8L121.7 686.2Z" fill="#715d62" stroke="#715d62"></path><path d="M74.1 708.6L90.1 694.8L77.7 665.8Z" fill="#51484a" stroke="#51484a"></path><path d="M453.9 307.8L430.7 279.2L420.7 293.8Z" fill="#81686e" stroke="#81686e"></path><path d="M111.3 295.2L68.7 300.2L113.1 314.2Z" fill="#615256" stroke="#615256"></path><path d="M0 377L0 412.4L61.6 356Z" fill="#92737b" stroke="#92737b"></path><path d="M102.1 250.8L111.3 295.2L118.7 292.8Z" fill="#a27f87" stroke="#a27f87"></path><path d="M418.7 727.6L415.7 676.2L353.6 707.6Z" fill="#615256" stroke="#615256"></path><path d="M209.4 170L147.9 242.4L223.4 238.4Z" fill="#81686e" stroke="#81686e"></path><path d="M223.4 238.4L147.9 242.4L209.9 265.2Z" fill="#615256" stroke="#615256"></path><path d="M107.3 236L147.9 242.4L131.7 167Z" fill="#51484a" stroke="#51484a"></path><path d="M90.1 694.8L110.3 716.6L115.7 708.6Z" fill="#423d3e" stroke="#423d3e"></path><path d="M115.7 708.6L155.9 767.4L177.9 716.2Z" fill="#92737b" stroke="#92737b"></path><path d="M-7.4 412.4L0 412.4L0 377Z" fill="#715d62" stroke="#715d62"></path><path d="M2.6 455.8L-7.4 412.4L0 472.8Z" fill="#615256" stroke="#615256"></path><path d="M0 574L56.6 571.4L18.6 536.6Z" fill="#423d3e" stroke="#423d3e"></path><path d="M90.1 694.8L80.6 720.2L110.3 716.6Z" fill="#a27f87" stroke="#a27f87"></path><path d="M0 523.6L0 574L18.6 536.6Z" fill="#b48a94" stroke="#b48a94"></path><path d="M453.9 307.8L436.3 277.2L430.7 279.2Z" fill="#333333" stroke="#333333"></path><path d="M430.7 279.2L346.7 221.4L420.7 293.8Z" fill="#333333" stroke="#333333"></path><path d="M207.4 749L275.4 766.6L267 700.6Z" fill="#81686e" stroke="#81686e"></path><path d="M540 532L462.4 491.8L454.3 541.2Z" fill="#92737b" stroke="#92737b"></path><path d="M504.9 469.8L540 445.8L502.4 437.4Z" fill="#51484a" stroke="#51484a"></path><path d="M502.4 437.4L540 412L493.9 392Z" fill="#d7a2af" stroke="#d7a2af"></path><path d="M540 495.6L539.4 463.2L504.9 469.8Z" fill="#92737b" stroke="#92737b"></path><path d="M493.9 392L540 364.6L479.4 376Z" fill="#423d3e" stroke="#423d3e"></path><path d="M0 377L61.6 356L1.6 355.6Z" fill="#a27f87" stroke="#a27f87"></path><path d="M0 412.4L-7.4 412.4L2.6 455.8Z" fill="#a27f87" stroke="#a27f87"></path><path d="M0 472.8L-7.4 412.4L0 507.2Z" fill="#51484a" stroke="#51484a"></path><path d="M0 507.2L-7.4 412.4L0 523.6Z" fill="#92737b" stroke="#92737b"></path><path d="M0 523.6L-7.4 412.4L0 574Z" fill="#81686e" stroke="#81686e"></path><path d="M540 532.2L540 532L454.3 541.2Z" fill="#a27f87" stroke="#a27f87"></path><path d="M540 532.2L454.3 541.2L508.4 579.6Z" fill="#d7a2af" stroke="#d7a2af"></path><path d="M540 622.4L540 532.2L508.4 579.6Z" fill="#715d62" stroke="#715d62"></path><path d="M540 495.6L540 445.8L539.4 463.2Z" fill="#92737b" stroke="#92737b"></path><path d="M539.4 463.2L540 445.8L504.9 469.8Z" fill="#615256" stroke="#615256"></path><path d="M453.9 307.8L465.3 239.8L436.3 277.2Z" fill="#a27f87" stroke="#a27f87"></path><path d="M394.3 207L346.7 221.4L430.7 279.2Z" fill="#d7a2af" stroke="#d7a2af"></path><path d="M540 445.8L540 431.4L502.4 437.4Z" fill="#51484a" stroke="#51484a"></path><path d="M413.3 748L418.7 727.6L351.1 735.6Z" fill="#715d62" stroke="#715d62"></path><path d="M351.1 735.6L418.7 727.6L353.6 707.6Z" fill="#615256" stroke="#615256"></path><path d="M1.6 355.6L61.6 356L60.6 340.2Z" fill="#92737b" stroke="#92737b"></path><path d="M147.9 242.4L102.1 250.8L118.7 292.8Z" fill="#423d3e" stroke="#423d3e"></path><path d="M0 312.8L1.6 355.6L60.6 340.2Z" fill="#a27f87" stroke="#a27f87"></path><path d="M35.1 726.2L74.1 708.6L50.6 663.8Z" fill="#a27f87" stroke="#a27f87"></path><path d="M50.6 663.8L74.1 708.6L77.7 665.8Z" fill="#333333" stroke="#333333"></path><path d="M195.3 794L232 777L207.4 749Z" fill="#51484a" stroke="#51484a"></path><path d="M155.9 767.4L115.7 708.6L110.3 716.6Z" fill="#81686e" stroke="#81686e"></path><path d="M207.4 749L232 777L275.4 766.6Z" fill="#c596a2" stroke="#c596a2"></path><path d="M540 431.4L540 412L502.4 437.4Z" fill="#423d3e" stroke="#423d3e"></path><path d="M471.9 693.8L467.4 612L435.3 650.8Z" fill="#81686e" stroke="#81686e"></path><path d="M496.9 607.4L528.4 621.4L508.4 579.6Z" fill="#b48a94" stroke="#b48a94"></path><path d="M471.9 693.8L435.3 650.8L442.3 694.2Z" fill="#d7a2af" stroke="#d7a2af"></path><path d="M464.9 717.2L471.9 693.8L442.3 694.2Z" fill="#d7a2af" stroke="#d7a2af"></path><path d="M0 312.8L60.6 340.2L68.7 300.2Z" fill="#c596a2" stroke="#c596a2"></path><path d="M0 377L1.6 355.6L-7.4 412.4Z" fill="#81686e" stroke="#81686e"></path><path d="M74.1 708.6L80.6 720.2L90.1 694.8Z" fill="#333333" stroke="#333333"></path><path d="M102.1 250.8L76.7 260.4L111.3 295.2Z" fill="#c596a2" stroke="#c596a2"></path><path d="M146.7 771L155.9 767.4L110.3 716.6Z" fill="#333333" stroke="#333333"></path><path d="M540 622.4L528.4 621.4L540 649.2Z" fill="#92737b" stroke="#92737b"></path><path d="M516.4 631.8L528.4 621.4L496.9 607.4Z" fill="#d7a2af" stroke="#d7a2af"></path><path d="M209.4 170L223.4 238.4L228.9 236.8Z" fill="#51484a" stroke="#51484a"></path><path d="M147.9 242.4L107.3 236L102.1 250.8Z" fill="#d7a2af" stroke="#d7a2af"></path><path d="M102.1 250.8L66.1 232L76.7 260.4Z" fill="#615256" stroke="#615256"></path><path d="M384.1 777L413.3 748L351.1 735.6Z" fill="#92737b" stroke="#92737b"></path><path d="M418.7 727.6L464.9 717.2L442.3 694.2Z" fill="#92737b" stroke="#92737b"></path><path d="M384.1 777L351.1 735.6L378.7 794Z" fill="#b48a94" stroke="#b48a94"></path><path d="M127.3 778.4L146.7 771L110.3 716.6Z" fill="#b48a94" stroke="#b48a94"></path><path d="M155.9 767.4L195.3 794L207.4 749Z" fill="#51484a" stroke="#51484a"></path><path d="M449.3 744.6L464.9 717.2L418.7 727.6Z" fill="#333333" stroke="#333333"></path><path d="M540 649.2L528.4 621.4L516.4 631.8Z" fill="#c596a2" stroke="#c596a2"></path><path d="M540 412L540 364.6L493.9 392Z" fill="#92737b" stroke="#92737b"></path><path d="M-7.4 412.4L0 649.4L0 574Z" fill="#d7a2af" stroke="#d7a2af"></path><path d="M0 574L0 649.4L63.6 584Z" fill="#c596a2" stroke="#c596a2"></path><path d="M74.1 708.6L35.1 726.2L80.6 720.2Z" fill="#715d62" stroke="#715d62"></path><path d="M486.4 702.2L516.4 631.8L471.9 693.8Z" fill="#92737b" stroke="#92737b"></path><path d="M528.4 621.4L540 622.4L508.4 579.6Z" fill="#92737b" stroke="#92737b"></path><path d="M479.4 713.6L486.4 702.2L471.9 693.8Z" fill="#615256" stroke="#615256"></path><path d="M157.9 801L195.3 794L155.9 767.4Z" fill="#423d3e" stroke="#423d3e"></path><path d="M232 777L266.6 803L275.4 766.6Z" fill="#c596a2" stroke="#c596a2"></path><path d="M378.7 794L351.1 735.6L351.6 829.4Z" fill="#81686e" stroke="#81686e"></path><path d="M490.9 761L479.4 713.6L464.9 717.2Z" fill="#c596a2" stroke="#c596a2"></path><path d="M464.9 717.2L479.4 713.6L471.9 693.8Z" fill="#c596a2" stroke="#c596a2"></path><path d="M449.3 744.6L418.7 727.6L413.3 748Z" fill="#c596a2" stroke="#c596a2"></path><path d="M540 658.8L540 649.2L516.4 631.8Z" fill="#715d62" stroke="#715d62"></path><path d="M436.3 277.2L394.3 207L430.7 279.2Z" fill="#c596a2" stroke="#c596a2"></path><path d="M302.6 170L285 172L273.6 224.4Z" fill="#423d3e" stroke="#423d3e"></path><path d="M273.6 224.4L209.4 170L228.9 236.8Z" fill="#d7a2af" stroke="#d7a2af"></path><path d="M465.3 239.8L394.3 207L436.3 277.2Z" fill="#715d62" stroke="#715d62"></path><path d="M248.4 842.2L266.6 803L232 777Z" fill="#423d3e" stroke="#423d3e"></path><path d="M394.3 207L382.1 201L346.7 221.4Z" fill="#51484a" stroke="#51484a"></path><path d="M-7.4 412.4L0 661.8L0 649.4Z" fill="#a27f87" stroke="#a27f87"></path><path d="M0 649.4L0 661.8L50.6 663.8Z" fill="#b48a94" stroke="#b48a94"></path><path d="M80.6 720.2L127.3 778.4L110.3 716.6Z" fill="#51484a" stroke="#51484a"></path><path d="M0 312.6L68.7 300.2L0 289.2Z" fill="#715d62" stroke="#715d62"></path><path d="M0 312.6L0 312.8L68.7 300.2Z" fill="#715d62" stroke="#715d62"></path><path d="M1.6 355.6L-6.4 283.8L-7.4 412.4Z" fill="#81686e" stroke="#81686e"></path><path d="M414.7 773.4L449.3 744.6L413.3 748Z" fill="#333333" stroke="#333333"></path><path d="M0 289.2L68.7 300.2L20.6 252.4Z" fill="#333333" stroke="#333333"></path><path d="M0 312.8L-6.4 283.8L1.6 355.6Z" fill="#92737b" stroke="#92737b"></path><path d="M48.6 778.4L127.3 778.4L80.6 720.2Z" fill="#51484a" stroke="#51484a"></path><path d="M146.7 771L157.9 801L155.9 767.4Z" fill="#92737b" stroke="#92737b"></path><path d="M302.6 170L273.6 224.4L346.7 221.4Z" fill="#615256" stroke="#615256"></path><path d="M157.9 801L199.9 802.8L195.3 794Z" fill="#b48a94" stroke="#b48a94"></path><path d="M195.3 794L199.9 802.8L232 777Z" fill="#b48a94" stroke="#b48a94"></path><path d="M540 658.8L516.4 631.8L486.4 702.2Z" fill="#b48a94" stroke="#b48a94"></path><path d="M418.7 803.8L414.7 773.4L384.1 777Z" fill="#d7a2af" stroke="#d7a2af"></path><path d="M384.1 777L414.7 773.4L413.3 748Z" fill="#c596a2" stroke="#c596a2"></path><path d="M513.4 279.8L465.3 239.8L453.9 307.8Z" fill="#615256" stroke="#615256"></path><path d="M405.7 183L376.1 186.4L382.1 201Z" fill="#92737b" stroke="#92737b"></path><path d="M362.1 173.6L302.6 170L346.7 221.4Z" fill="#423d3e" stroke="#423d3e"></path><path d="M107.3 236L66.1 232L102.1 250.8Z" fill="#c596a2" stroke="#c596a2"></path><path d="M83.6 185L66.1 232L107.3 236Z" fill="#715d62" stroke="#715d62"></path><path d="M270 160.2L273.6 224.4L285 172Z" fill="#615256" stroke="#615256"></path><path d="M270 160.2L209.4 170L273.6 224.4Z" fill="#81686e" stroke="#81686e"></path><path d="M405.7 183L382.1 201L394.3 207Z" fill="#715d62" stroke="#715d62"></path><path d="M382.1 201L376.1 186.4L346.7 221.4Z" fill="#51484a" stroke="#51484a"></path><path d="M540 708.6L540 658.8L486.4 702.2Z" fill="#92737b" stroke="#92737b"></path><path d="M540 708.6L486.4 702.2L479.4 713.6Z" fill="#81686e" stroke="#81686e"></path><path d="M351.6 829.4L351.1 735.6L275.4 766.6Z" fill="#51484a" stroke="#51484a"></path><path d="M0.6 697.6L35.1 726.2L50.6 663.8Z" fill="#c596a2" stroke="#c596a2"></path><path d="M544.4 305.6L453.9 307.8L479.4 376Z" fill="#c596a2" stroke="#c596a2"></path><path d="M120.1 817.8L157.9 801L127.3 778.4Z" fill="#b48a94" stroke="#b48a94"></path><path d="M127.3 778.4L157.9 801L146.7 771Z" fill="#a27f87" stroke="#a27f87"></path><path d="M267 828.8L277.6 818.8L266.6 803Z" fill="#81686e" stroke="#81686e"></path><path d="M266.6 803L277.6 818.8L275.4 766.6Z" fill="#715d62" stroke="#715d62"></path><path d="M267 828.8L266.6 803L248.4 842.2Z" fill="#333333" stroke="#333333"></path><path d="M253 145.6L270 160.2L273.4 114.6Z" fill="#715d62" stroke="#715d62"></path><path d="M302.6 170L270 160.2L285 172Z" fill="#a27f87" stroke="#a27f87"></path><path d="M20.6 252.4L68.7 300.2L76.7 260.4Z" fill="#92737b" stroke="#92737b"></path><path d="M0 312.6L-6.4 283.8L0 312.8Z" fill="#c596a2" stroke="#c596a2"></path><path d="M0 661.8L0 691.2L50.6 663.8Z" fill="#d7a2af" stroke="#d7a2af"></path><path d="M-7.4 412.4L0 691.2L0 661.8Z" fill="#81686e" stroke="#81686e"></path><path d="M403.7 147.6L362.1 173.6L376.1 186.4Z" fill="#c596a2" stroke="#c596a2"></path><path d="M376.1 186.4L362.1 173.6L346.7 221.4Z" fill="#81686e" stroke="#81686e"></path><path d="M0 691.2L0.6 697.6L50.6 663.8Z" fill="#c596a2" stroke="#c596a2"></path><path d="M540 412L544.4 305.6L540 364.6Z" fill="#81686e" stroke="#81686e"></path><path d="M540 364.6L544.4 305.6L479.4 376Z" fill="#b48a94" stroke="#b48a94"></path><path d="M540 431.4L544.4 305.6L540 412Z" fill="#a27f87" stroke="#a27f87"></path><path d="M540 445.8L544.4 305.6L540 431.4Z" fill="#333333" stroke="#333333"></path><path d="M540 495.6L544.4 305.6L540 445.8Z" fill="#423d3e" stroke="#423d3e"></path><path d="M540 532L544.4 305.6L540 495.6Z" fill="#81686e" stroke="#81686e"></path><path d="M540 532.2L544.4 305.6L540 532Z" fill="#81686e" stroke="#81686e"></path><path d="M540 622.4L544.4 305.6L540 532.2Z" fill="#b48a94" stroke="#b48a94"></path><path d="M542.4 846.2L544.4 305.6L540 622.4Z" fill="#b48a94" stroke="#b48a94"></path><path d="M542.4 846.2L540 622.4L540 649.2Z" fill="#423d3e" stroke="#423d3e"></path><path d="M513.4 279.8L474.4 227L465.3 239.8Z" fill="#615256" stroke="#615256"></path><path d="M439.3 195.4L405.7 183L394.3 207Z" fill="#c596a2" stroke="#c596a2"></path><path d="M540 249.4L474.4 227L513.4 279.8Z" fill="#c596a2" stroke="#c596a2"></path><path d="M20.6 252.4L-6.4 283.8L0 289.2Z" fill="#92737b" stroke="#92737b"></path><path d="M0 289.2L-6.4 283.8L0 312.6Z" fill="#51484a" stroke="#51484a"></path><path d="M66.1 232L20.6 252.4L76.7 260.4Z" fill="#423d3e" stroke="#423d3e"></path><path d="M248.4 842.2L232 777L199.9 802.8Z" fill="#51484a" stroke="#51484a"></path><path d="M277.6 818.8L351.6 829.4L275.4 766.6Z" fill="#d7a2af" stroke="#d7a2af"></path><path d="M439.3 195.4L394.3 207L465.3 239.8Z" fill="#b48a94" stroke="#b48a94"></path><path d="M-7.4 412.4L0 710.6L0 691.2Z" fill="#a27f87" stroke="#a27f87"></path><path d="M0 691.2L0 710.6L0.6 697.6Z" fill="#51484a" stroke="#51484a"></path><path d="M0.6 697.6L0 710.6L35.1 726.2Z" fill="#333333" stroke="#333333"></path><path d="M74.1 810L120.1 817.8L127.3 778.4Z" fill="#615256" stroke="#615256"></path><path d="M474.4 227L439.3 195.4L465.3 239.8Z" fill="#92737b" stroke="#92737b"></path><path d="M270 160.2L253 145.6L209.4 170Z" fill="#423d3e" stroke="#423d3e"></path><path d="M209.4 170L131.7 167L147.9 242.4Z" fill="#a27f87" stroke="#a27f87"></path><path d="M66.1 232L32.1 202.4L20.6 252.4Z" fill="#423d3e" stroke="#423d3e"></path><path d="M287.6 115.6L270 160.2L302.6 170Z" fill="#715d62" stroke="#715d62"></path><path d="M287.6 115.6L302.6 170L361.7 116.8Z" fill="#92737b" stroke="#92737b"></path><path d="M253 145.6L188.9 151L209.4 170Z" fill="#92737b" stroke="#92737b"></path><path d="M544.4 305.6L540 281.2L513.4 279.8Z" fill="#51484a" stroke="#51484a"></path><path d="M474.4 227L490.9 196.4L439.3 195.4Z" fill="#92737b" stroke="#92737b"></path><path d="M188.9 151L131.7 167L209.4 170Z" fill="#81686e" stroke="#81686e"></path><path d="M544.4 305.6L544.4 284.2L540 281.2Z" fill="#d7a2af" stroke="#d7a2af"></path><path d="M540 281.2L540 276.8L513.4 279.8Z" fill="#92737b" stroke="#92737b"></path><path d="M544.4 284.2L540 276.8L540 281.2Z" fill="#615256" stroke="#615256"></path><path d="M406.3 845.8L418.7 803.8L378.7 794Z" fill="#333333" stroke="#333333"></path><path d="M378.7 794L418.7 803.8L384.1 777Z" fill="#d7a2af" stroke="#d7a2af"></path><path d="M414.7 773.4L418.7 803.8L449.3 744.6Z" fill="#a27f87" stroke="#a27f87"></path><path d="M497.9 756.6L540 708.6L479.4 713.6Z" fill="#81686e" stroke="#81686e"></path><path d="M352.1 846.8L351.6 829.4L341.1 850.4Z" fill="#92737b" stroke="#92737b"></path><path d="M212.4 852.4L248.4 842.2L199.9 802.8Z" fill="#c596a2" stroke="#c596a2"></path><path d="M341.1 850.4L351.6 829.4L277.6 818.8Z" fill="#423d3e" stroke="#423d3e"></path><path d="M131.7 167L83.6 185L107.3 236Z" fill="#423d3e" stroke="#423d3e"></path><path d="M490.9 761L464.9 717.2L449.3 744.6Z" fill="#333333" stroke="#333333"></path><path d="M540 658.8L542.4 846.2L540 649.2Z" fill="#c596a2" stroke="#c596a2"></path><path d="M490.9 806.4L490.9 761L449.3 744.6Z" fill="#715d62" stroke="#715d62"></path><path d="M83.6 185L56.1 199.6L66.1 232Z" fill="#b48a94" stroke="#b48a94"></path><path d="M20.6 252.4L0 238L-6.4 283.8Z" fill="#92737b" stroke="#92737b"></path><path d="M490.9 761L497.9 756.6L479.4 713.6Z" fill="#b48a94" stroke="#b48a94"></path><path d="M48.6 778.4L80.6 720.2L35.1 726.2Z" fill="#333333" stroke="#333333"></path><path d="M184.3 861.2L212.4 852.4L199.9 802.8Z" fill="#92737b" stroke="#92737b"></path><path d="M243.4 869.8L255 847.4L248.4 842.2Z" fill="#51484a" stroke="#51484a"></path><path d="M248.4 842.2L255 847.4L267 828.8Z" fill="#333333" stroke="#333333"></path><path d="M38.1 773.4L48.6 778.4L35.1 726.2Z" fill="#b48a94" stroke="#b48a94"></path><path d="M131.7 167L118.3 145.2L83.6 185Z" fill="#81686e" stroke="#81686e"></path><path d="M188.9 151L169.9 141.6L131.7 167Z" fill="#c596a2" stroke="#c596a2"></path><path d="M174.3 97.8L169.9 141.6L188.9 151Z" fill="#51484a" stroke="#51484a"></path><path d="M0 710.6L38.1 773.4L35.1 726.2Z" fill="#423d3e" stroke="#423d3e"></path><path d="M48.6 778.4L74.1 810L127.3 778.4Z" fill="#c596a2" stroke="#c596a2"></path><path d="M32.1 202.4L0 238L20.6 252.4Z" fill="#81686e" stroke="#81686e"></path><path d="M154.7 847.4L199.9 802.8L157.9 801Z" fill="#615256" stroke="#615256"></path><path d="M544.4 284.2L540 249.4L540 276.8Z" fill="#715d62" stroke="#715d62"></path><path d="M540 276.8L540 249.4L513.4 279.8Z" fill="#d7a2af" stroke="#d7a2af"></path><path d="M0 169.6L32.1 202.4L40.6 128.2Z" fill="#a27f87" stroke="#a27f87"></path><path d="M56.1 199.6L32.1 202.4L66.1 232Z" fill="#615256" stroke="#615256"></path><path d="M85.1 148.2L56.1 199.6L83.6 185Z" fill="#a27f87" stroke="#a27f87"></path><path d="M351.6 829.4L406.3 845.8L378.7 794Z" fill="#b48a94" stroke="#b48a94"></path><path d="M418.7 803.8L490.9 806.4L449.3 744.6Z" fill="#423d3e" stroke="#423d3e"></path><path d="M341.1 850.4L277.6 818.8L288 888.2Z" fill="#51484a" stroke="#51484a"></path><path d="M277.6 818.8L267 828.8L288 888.2Z" fill="#b48a94" stroke="#b48a94"></path><path d="M288 888.2L267 828.8L255 847.4Z" fill="#423d3e" stroke="#423d3e"></path><path d="M439.3 195.4L403.7 147.6L405.7 183Z" fill="#d7a2af" stroke="#d7a2af"></path><path d="M405.7 183L403.7 147.6L376.1 186.4Z" fill="#c596a2" stroke="#c596a2"></path><path d="M253 145.6L238.4 88.2L188.9 151Z" fill="#715d62" stroke="#715d62"></path><path d="M466.9 168L403.7 147.6L439.3 195.4Z" fill="#81686e" stroke="#81686e"></path><path d="M57.6 803L74.1 810L48.6 778.4Z" fill="#715d62" stroke="#715d62"></path><path d="M120.1 817.8L154.7 847.4L157.9 801Z" fill="#51484a" stroke="#51484a"></path><path d="M540 249.4L490.9 196.4L474.4 227Z" fill="#51484a" stroke="#51484a"></path><path d="M153.3 871.8L154.7 847.4L119.7 876.6Z" fill="#a27f87" stroke="#a27f87"></path><path d="M169.9 141.6L118.3 145.2L131.7 167Z" fill="#423d3e" stroke="#423d3e"></path><path d="M38.1 773.4L57.6 803L48.6 778.4Z" fill="#81686e" stroke="#81686e"></path><path d="M119.7 876.6L154.7 847.4L120.1 817.8Z" fill="#c596a2" stroke="#c596a2"></path><path d="M361.7 116.8L302.6 170L362.1 173.6Z" fill="#51484a" stroke="#51484a"></path><path d="M121.1 105.8L113.7 111.6L118.3 145.2Z" fill="#a27f87" stroke="#a27f87"></path><path d="M287.6 115.6L273.4 114.6L270 160.2Z" fill="#a27f87" stroke="#a27f87"></path><path d="M287.6 115.6L268.6 111.2L273.4 114.6Z" fill="#c596a2" stroke="#c596a2"></path><path d="M273.4 114.6L268.6 111.2L253 145.6Z" fill="#b48a94" stroke="#b48a94"></path><path d="M154.7 847.4L184.3 861.2L199.9 802.8Z" fill="#81686e" stroke="#81686e"></path><path d="M212.4 852.4L243.4 869.8L248.4 842.2Z" fill="#81686e" stroke="#81686e"></path><path d="M153.3 871.8L184.3 861.2L154.7 847.4Z" fill="#615256" stroke="#615256"></path><path d="M471.4 161.6L476.9 177.6L540 160Z" fill="#d7a2af" stroke="#d7a2af"></path><path d="M490.9 196.4L476.9 177.6L439.3 195.4Z" fill="#333333" stroke="#333333"></path><path d="M194.9 885.6L243.4 869.8L212.4 852.4Z" fill="#a27f87" stroke="#a27f87"></path><path d="M476.9 177.6L466.9 168L439.3 195.4Z" fill="#92737b" stroke="#92737b"></path><path d="M403.7 850.2L351.6 829.4L352.1 846.8Z" fill="#d7a2af" stroke="#d7a2af"></path><path d="M403.7 850.2L406.3 845.8L351.6 829.4Z" fill="#d7a2af" stroke="#d7a2af"></path><path d="M490.9 761L518.4 796L497.9 756.6Z" fill="#333333" stroke="#333333"></path><path d="M403.7 850.2L352.1 846.8L374.7 892.6Z" fill="#333333" stroke="#333333"></path><path d="M74.6 133.6L85.1 148.2L108.3 109.6Z" fill="#a27f87" stroke="#a27f87"></path><path d="M118.3 145.2L85.1 148.2L83.6 185Z" fill="#c596a2" stroke="#c596a2"></path><path d="M362.7 110.2L361.7 116.8L403.7 147.6Z" fill="#715d62" stroke="#715d62"></path><path d="M403.7 147.6L361.7 116.8L362.1 173.6Z" fill="#92737b" stroke="#92737b"></path><path d="M289.6 59.4L241.4 88.8L268.6 111.2Z" fill="#b48a94" stroke="#b48a94"></path><path d="M374.7 892.6L352.1 846.8L341.1 850.4Z" fill="#333333" stroke="#333333"></path><path d="M461.3 841.4L490.9 806.4L418.7 803.8Z" fill="#423d3e" stroke="#423d3e"></path><path d="M476.9 177.6L471.4 161.6L466.9 168Z" fill="#333333" stroke="#333333"></path><path d="M466.9 168L443.3 123.2L403.7 147.6Z" fill="#51484a" stroke="#51484a"></path><path d="M540 160L476.9 177.6L490.9 196.4Z" fill="#a27f87" stroke="#a27f87"></path><path d="M461.3 841.4L418.7 803.8L406.3 845.8Z" fill="#51484a" stroke="#51484a"></path><path d="M497.9 756.6L540.4 765.4L540 708.6Z" fill="#d7a2af" stroke="#d7a2af"></path><path d="M518.4 796L540.4 765.4L497.9 756.6Z" fill="#423d3e" stroke="#423d3e"></path><path d="M540 708.6L542.4 846.2L540 658.8Z" fill="#81686e" stroke="#81686e"></path><path d="M423.3 106.6L362.7 110.2L403.7 147.6Z" fill="#423d3e" stroke="#423d3e"></path><path d="M361.7 116.8L337.6 79.8L287.6 115.6Z" fill="#423d3e" stroke="#423d3e"></path><path d="M0 169.6L0 196.4L32.1 202.4Z" fill="#51484a" stroke="#51484a"></path><path d="M32.1 202.4L0 196.4L0 238Z" fill="#333333" stroke="#333333"></path><path d="M0 238L0 196.4L-6.4 283.8Z" fill="#a27f87" stroke="#a27f87"></path><path d="M84.1 854.2L120.1 817.8L74.1 810Z" fill="#51484a" stroke="#51484a"></path><path d="M184.3 861.2L194.9 885.6L212.4 852.4Z" fill="#c596a2" stroke="#c596a2"></path><path d="M153.3 871.8L178.9 880.2L184.3 861.2Z" fill="#333333" stroke="#333333"></path><path d="M243.4 869.8L288 888.2L255 847.4Z" fill="#615256" stroke="#615256"></path><path d="M295.6 919.6L288 888.2L275 935.6Z" fill="#333333" stroke="#333333"></path><path d="M540 798L518.4 796L540 811.4Z" fill="#51484a" stroke="#51484a"></path><path d="M490.9 806.4L518.4 796L490.9 761Z" fill="#92737b" stroke="#92737b"></path><path d="M540 249.4L531.4 194.4L490.9 196.4Z" fill="#423d3e" stroke="#423d3e"></path><path d="M228.4 922.6L194.9 885.6L164.3 946.6Z" fill="#d7a2af" stroke="#d7a2af"></path><path d="M178.9 880.2L194.9 885.6L184.3 861.2Z" fill="#333333" stroke="#333333"></path><path d="M289.6 59.4L268.6 111.2L287.6 115.6Z" fill="#423d3e" stroke="#423d3e"></path><path d="M268.6 111.2L241.4 88.8L253 145.6Z" fill="#51484a" stroke="#51484a"></path><path d="M238.4 88.2L174.3 97.8L188.9 151Z" fill="#a27f87" stroke="#a27f87"></path><path d="M233.9 82.2L238.4 88.2L241.4 88.8Z" fill="#423d3e" stroke="#423d3e"></path><path d="M241.4 88.8L238.4 88.2L253 145.6Z" fill="#d7a2af" stroke="#d7a2af"></path><path d="M108.3 109.6L85.1 148.2L118.3 145.2Z" fill="#d7a2af" stroke="#d7a2af"></path><path d="M85.1 148.2L40.6 128.2L56.1 199.6Z" fill="#615256" stroke="#615256"></path><path d="M437.9 870.8L406.3 845.8L403.7 850.2Z" fill="#81686e" stroke="#81686e"></path><path d="M437.9 870.8L461.3 841.4L406.3 845.8Z" fill="#a27f87" stroke="#a27f87"></path><path d="M57.6 803L84.1 854.2L74.1 810Z" fill="#333333" stroke="#333333"></path><path d="M153.3 871.8L164.3 946.6L178.9 880.2Z" fill="#d7a2af" stroke="#d7a2af"></path><path d="M68.7 875.2L84.1 854.2L20.6 873.8Z" fill="#a27f87" stroke="#a27f87"></path><path d="M0 804L57.6 803L38.1 773.4Z" fill="#423d3e" stroke="#423d3e"></path><path d="M121.1 105.8L118.3 145.2L169.9 141.6Z" fill="#92737b" stroke="#92737b"></path><path d="M238.4 88.2L233.9 82.2L174.3 97.8Z" fill="#715d62" stroke="#715d62"></path><path d="M174.3 97.8L121.1 105.8L169.9 141.6Z" fill="#c596a2" stroke="#c596a2"></path><path d="M243 49.8L233.9 82.2L241.4 88.8Z" fill="#715d62" stroke="#715d62"></path><path d="M-7.4 412.4L0 804L0 710.6Z" fill="#51484a" stroke="#51484a"></path><path d="M0 710.6L0 804L38.1 773.4Z" fill="#51484a" stroke="#51484a"></path><path d="M118.7 51.8L121.1 105.8L174.3 97.8Z" fill="#615256" stroke="#615256"></path><path d="M113.7 111.6L108.3 109.6L118.3 145.2Z" fill="#615256" stroke="#615256"></path><path d="M471.4 161.6L443.3 123.2L466.9 168Z" fill="#423d3e" stroke="#423d3e"></path><path d="M362.7 110.2L337.6 79.8L361.7 116.8Z" fill="#615256" stroke="#615256"></path><path d="M460.3 115.8L443.3 123.2L471.4 161.6Z" fill="#615256" stroke="#615256"></path><path d="M121.1 105.8L108.3 109.6L113.7 111.6Z" fill="#615256" stroke="#615256"></path><path d="M86.7 864.8L119.7 876.6L84.1 854.2Z" fill="#a27f87" stroke="#a27f87"></path><path d="M84.1 854.2L119.7 876.6L120.1 817.8Z" fill="#615256" stroke="#615256"></path><path d="M68.7 875.2L86.7 864.8L84.1 854.2Z" fill="#51484a" stroke="#51484a"></path><path d="M40.6 128.2L32.1 202.4L56.1 199.6Z" fill="#615256" stroke="#615256"></path><path d="M0 196.4L-8.4 69.8L-6.4 283.8Z" fill="#81686e" stroke="#81686e"></path><path d="M40.6 128.2L85.1 148.2L74.6 133.6Z" fill="#51484a" stroke="#51484a"></path><path d="M540 811.4L518.4 796L490.9 806.4Z" fill="#81686e" stroke="#81686e"></path><path d="M518.4 796L540 798L540.4 765.4Z" fill="#333333" stroke="#333333"></path><path d="M431.9 101.2L423.3 106.6L443.3 123.2Z" fill="#715d62" stroke="#715d62"></path><path d="M443.3 123.2L423.3 106.6L403.7 147.6Z" fill="#333333" stroke="#333333"></path><path d="M540 249.4L540 179.6L531.4 194.4Z" fill="#b48a94" stroke="#b48a94"></path><path d="M531.4 194.4L540 179.6L490.9 196.4Z" fill="#51484a" stroke="#51484a"></path><path d="M544.4 284.2L540 179.6L540 249.4Z" fill="#b48a94" stroke="#b48a94"></path><path d="M344.1 78.2L337.6 79.8L362.7 110.2Z" fill="#92737b" stroke="#92737b"></path><path d="M351.6 911.2L374.7 892.6L341.1 850.4Z" fill="#423d3e" stroke="#423d3e"></path><path d="M540 841.8L540 811.4L490.9 806.4Z" fill="#92737b" stroke="#92737b"></path><path d="M351.6 911.2L341.1 850.4L328.1 918.2Z" fill="#423d3e" stroke="#423d3e"></path><path d="M374.7 892.6L437.9 870.8L403.7 850.2Z" fill="#a27f87" stroke="#a27f87"></path><path d="M368.7 83.4L344.1 78.2L362.7 110.2Z" fill="#51484a" stroke="#51484a"></path><path d="M243 49.8L208.9 61.8L233.9 82.2Z" fill="#615256" stroke="#615256"></path><path d="M389.1 77.4L368.7 83.4L362.7 110.2Z" fill="#51484a" stroke="#51484a"></path><path d="M540 152.2L460.3 115.8L471.4 161.6Z" fill="#d7a2af" stroke="#d7a2af"></path><path d="M423.3 106.6L389.1 77.4L362.7 110.2Z" fill="#c596a2" stroke="#c596a2"></path><path d="M76.7 90.2L74.6 133.6L108.3 109.6Z" fill="#81686e" stroke="#81686e"></path><path d="M76.7 90.2L40.6 128.2L74.6 133.6Z" fill="#423d3e" stroke="#423d3e"></path><path d="M475.4 78.2L457.9 113.8L460.3 115.8Z" fill="#333333" stroke="#333333"></path><path d="M460.3 115.8L457.9 113.8L443.3 123.2Z" fill="#d7a2af" stroke="#d7a2af"></path><path d="M457.9 113.8L431.9 101.2L443.3 123.2Z" fill="#a27f87" stroke="#a27f87"></path><path d="M472.9 869.2L490.9 806.4L461.3 841.4Z" fill="#c596a2" stroke="#c596a2"></path><path d="M540 798L542.4 846.2L540.4 765.4Z" fill="#423d3e" stroke="#423d3e"></path><path d="M288 888.2L243.4 869.8L228.4 922.6Z" fill="#51484a" stroke="#51484a"></path><path d="M328.1 918.2L341.1 850.4L288 888.2Z" fill="#715d62" stroke="#715d62"></path><path d="M495.4 882.8L472.9 869.2L464.4 902.6Z" fill="#51484a" stroke="#51484a"></path><path d="M86.7 864.8L68.7 875.2L119.7 876.6Z" fill="#a27f87" stroke="#a27f87"></path><path d="M228.4 922.6L243.4 869.8L194.9 885.6Z" fill="#a27f87" stroke="#a27f87"></path><path d="M20.6 873.8L84.1 854.2L57.6 803Z" fill="#333333" stroke="#333333"></path><path d="M194.9 885.6L178.9 880.2L164.3 946.6Z" fill="#423d3e" stroke="#423d3e"></path><path d="M289.6 59.4L287.6 115.6L337.6 79.8Z" fill="#b48a94" stroke="#b48a94"></path><path d="M233.9 82.2L208.9 61.8L174.3 97.8Z" fill="#333333" stroke="#333333"></path><path d="M118.7 51.8L76.7 90.2L108.3 109.6Z" fill="#92737b" stroke="#92737b"></path><path d="M362.1 46.8L337.6 79.8L344.1 78.2Z" fill="#b48a94" stroke="#b48a94"></path><path d="M300 35.4L289.6 59.4L337.6 79.8Z" fill="#715d62" stroke="#715d62"></path><path d="M362.1 46.8L344.1 78.2L368.7 83.4Z" fill="#333333" stroke="#333333"></path><path d="M544.4 284.2L540 160L540 179.6Z" fill="#a27f87" stroke="#a27f87"></path><path d="M540 179.6L540 160L490.9 196.4Z" fill="#a27f87" stroke="#a27f87"></path><path d="M362.1 46.8L389.1 77.4L405.3 16.4Z" fill="#a27f87" stroke="#a27f87"></path><path d="M431.9 101.2L389.1 77.4L423.3 106.6Z" fill="#c596a2" stroke="#c596a2"></path><path d="M295.6 919.6L328.1 918.2L288 888.2Z" fill="#423d3e" stroke="#423d3e"></path><path d="M164.3 946.6L153.3 871.8L119.7 876.6Z" fill="#a27f87" stroke="#a27f87"></path><path d="M295.6 919.6L331.1 966.6L328.1 918.2Z" fill="#b48a94" stroke="#b48a94"></path><path d="M497.9 879.6L472.9 869.2L495.4 882.8Z" fill="#715d62" stroke="#715d62"></path><path d="M437.9 870.8L472.9 869.2L461.3 841.4Z" fill="#615256" stroke="#615256"></path><path d="M-7.4 412.4L0 839.8L0 804Z" fill="#715d62" stroke="#715d62"></path><path d="M0 804L0 839.8L57.6 803Z" fill="#a27f87" stroke="#a27f87"></path><path d="M544.4 39.8L540 152.2L540 160Z" fill="#51484a" stroke="#51484a"></path><path d="M540 160L540 152.2L471.4 161.6Z" fill="#423d3e" stroke="#423d3e"></path><path d="M405.3 16.4L389.1 77.4L448.9 30.4Z" fill="#c596a2" stroke="#c596a2"></path><path d="M118.7 51.8L108.3 109.6L121.1 105.8Z" fill="#81686e" stroke="#81686e"></path><path d="M40.6 128.2L0 98.2L0 169.6Z" fill="#715d62" stroke="#715d62"></path><path d="M289.6 59.4L243 49.8L241.4 88.8Z" fill="#81686e" stroke="#81686e"></path><path d="M208.9 61.8L171.9 47.4L174.3 97.8Z" fill="#423d3e" stroke="#423d3e"></path><path d="M300 35.4L243 49.8L289.6 59.4Z" fill="#c596a2" stroke="#c596a2"></path><path d="M-7.4 412.4L0 846.2L0 839.8Z" fill="#92737b" stroke="#92737b"></path><path d="M0 839.8L20.6 873.8L57.6 803Z" fill="#d7a2af" stroke="#d7a2af"></path><path d="M-7.4 412.4L0 848.4L0 846.2Z" fill="#81686e" stroke="#81686e"></path><path d="M0 846.2L20.6 873.8L0 839.8Z" fill="#51484a" stroke="#51484a"></path><path d="M437.9 870.8L459.3 915.2L464.4 902.6Z" fill="#b48a94" stroke="#b48a94"></path><path d="M228.4 922.6L275 935.6L288 888.2Z" fill="#92737b" stroke="#92737b"></path><path d="M497.9 879.6L540 841.8L490.9 806.4Z" fill="#d7a2af" stroke="#d7a2af"></path><path d="M540 811.4L542.4 846.2L540 798Z" fill="#333333" stroke="#333333"></path><path d="M540.4 765.4L542.4 846.2L540 708.6Z" fill="#423d3e" stroke="#423d3e"></path><path d="M178.3 20.4L171.9 47.4L208.9 61.8Z" fill="#423d3e" stroke="#423d3e"></path><path d="M0 848.4L20.6 873.8L0 846.2Z" fill="#715d62" stroke="#715d62"></path><path d="M107.1 941.6L164.3 946.6L119.7 876.6Z" fill="#a27f87" stroke="#a27f87"></path><path d="M228.4 922.6L256.4 960L275 935.6Z" fill="#51484a" stroke="#51484a"></path><path d="M497.9 879.6L542.4 846.2L540 841.8Z" fill="#c596a2" stroke="#c596a2"></path><path d="M540 841.8L542.4 846.2L540 811.4Z" fill="#715d62" stroke="#715d62"></path><path d="M497.9 879.6L490.9 806.4L472.9 869.2Z" fill="#615256" stroke="#615256"></path><path d="M475.4 78.2L431.9 101.2L457.9 113.8Z" fill="#615256" stroke="#615256"></path><path d="M389.1 77.4L362.1 46.8L368.7 83.4Z" fill="#333333" stroke="#333333"></path><path d="M243 49.8L214.4 15.4L208.9 61.8Z" fill="#92737b" stroke="#92737b"></path><path d="M374.7 892.6L459.3 915.2L437.9 870.8Z" fill="#a27f87" stroke="#a27f87"></path><path d="M472.9 869.2L437.9 870.8L464.4 902.6Z" fill="#a27f87" stroke="#a27f87"></path><path d="M362.1 46.8L300 35.4L337.6 79.8Z" fill="#d7a2af" stroke="#d7a2af"></path><path d="M374.7 892.6L413.7 960L459.3 915.2Z" fill="#c596a2" stroke="#c596a2"></path><path d="M497.9 879.6L540 884.2L542.4 846.2Z" fill="#92737b" stroke="#92737b"></path><path d="M374.7 892.6L351.6 911.2L381.1 960Z" fill="#333333" stroke="#333333"></path><path d="M171.9 47.4L118.7 51.8L174.3 97.8Z" fill="#81686e" stroke="#81686e"></path><path d="M138.7 6.4L118.7 51.8L171.9 47.4Z" fill="#81686e" stroke="#81686e"></path><path d="M540 152.2L475.4 78.2L460.3 115.8Z" fill="#423d3e" stroke="#423d3e"></path><path d="M107.1 941.6L119.7 876.6L68.7 875.2Z" fill="#423d3e" stroke="#423d3e"></path><path d="M4.6 910.2L35.6 899.6L20.6 873.8Z" fill="#b48a94" stroke="#b48a94"></path><path d="M20.6 873.8L35.6 899.6L68.7 875.2Z" fill="#333333" stroke="#333333"></path><path d="M331.1 966.6L351.6 911.2L328.1 918.2Z" fill="#b48a94" stroke="#b48a94"></path><path d="M495.4 960L540 915.6L495.4 882.8Z" fill="#92737b" stroke="#92737b"></path><path d="M495.4 882.8L540 884.2L497.9 879.6Z" fill="#c596a2" stroke="#c596a2"></path><path d="M240 960L256.4 960L228.4 922.6Z" fill="#d7a2af" stroke="#d7a2af"></path><path d="M275 935.6L283.6 960L295.6 919.6Z" fill="#423d3e" stroke="#423d3e"></path><path d="M256.4 960L283.6 960L275 935.6Z" fill="#333333" stroke="#333333"></path><path d="M200.9 960L240 960L228.4 922.6Z" fill="#333333" stroke="#333333"></path><path d="M76.7 90.2L0 98.2L40.6 128.2Z" fill="#d7a2af" stroke="#d7a2af"></path><path d="M0 169.6L-8.4 69.8L0 196.4Z" fill="#a27f87" stroke="#a27f87"></path><path d="M32.1 50.4L0 98.2L76.7 90.2Z" fill="#92737b" stroke="#92737b"></path><path d="M137.7 960L200.9 960L164.3 946.6Z" fill="#92737b" stroke="#92737b"></path><path d="M164.3 946.6L200.9 960L228.4 922.6Z" fill="#c596a2" stroke="#c596a2"></path><path d="M232 0L243 49.8L300 35.4Z" fill="#92737b" stroke="#92737b"></path><path d="M232 0L214.4 15.4L243 49.8Z" fill="#423d3e" stroke="#423d3e"></path><path d="M214.4 15.4L178.3 20.4L208.9 61.8Z" fill="#81686e" stroke="#81686e"></path><path d="M56.6 34.4L32.1 50.4L76.7 90.2Z" fill="#715d62" stroke="#715d62"></path><path d="M35.6 899.6L107.1 941.6L68.7 875.2Z" fill="#92737b" stroke="#92737b"></path><path d="M256.4 960L331.1 966.6L283.6 960Z" fill="#d7a2af" stroke="#d7a2af"></path><path d="M283.6 960L331.1 966.6L295.6 919.6Z" fill="#615256" stroke="#615256"></path><path d="M240 960L331.1 966.6L256.4 960Z" fill="#333333" stroke="#333333"></path><path d="M200.9 960L331.1 966.6L240 960Z" fill="#715d62" stroke="#715d62"></path><path d="M540 915.6L540 884.2L495.4 882.8Z" fill="#c596a2" stroke="#c596a2"></path><path d="M495.4 882.8L464.4 902.6L495.4 960Z" fill="#a27f87" stroke="#a27f87"></path><path d="M331.1 966.6L381.1 960L351.6 911.2Z" fill="#715d62" stroke="#715d62"></path><path d="M132.3 960L137.7 960L107.1 941.6Z" fill="#b48a94" stroke="#b48a94"></path><path d="M107.1 941.6L137.7 960L164.3 946.6Z" fill="#d7a2af" stroke="#d7a2af"></path><path d="M200.9 960L137.7 960L331.1 966.6Z" fill="#615256" stroke="#615256"></path><path d="M107.1 960L132.3 960L107.1 941.6Z" fill="#51484a" stroke="#51484a"></path><path d="M137.7 960L132.3 960L331.1 966.6Z" fill="#51484a" stroke="#51484a"></path><path d="M342.7 0L232 0L300 35.4Z" fill="#615256" stroke="#615256"></path><path d="M214.4 15.4L172.3 0L178.3 20.4Z" fill="#92737b" stroke="#92737b"></path><path d="M342.7 0L300 35.4L362.1 46.8Z" fill="#a27f87" stroke="#a27f87"></path><path d="M232 0L228.4 0L214.4 15.4Z" fill="#d7a2af" stroke="#d7a2af"></path><path d="M413.7 960L456.3 941.6L459.3 915.2Z" fill="#b48a94" stroke="#b48a94"></path><path d="M0 848.4L4.6 910.2L20.6 873.8Z" fill="#715d62" stroke="#715d62"></path><path d="M52.6 960L107.1 960L107.1 941.6Z" fill="#d7a2af" stroke="#d7a2af"></path><path d="M331.1 966.6L413.7 960L381.1 960Z" fill="#333333" stroke="#333333"></path><path d="M381.1 960L413.7 960L374.7 892.6Z" fill="#615256" stroke="#615256"></path><path d="M52.6 960L107.1 941.6L35.6 899.6Z" fill="#d7a2af" stroke="#d7a2af"></path><path d="M132.3 960L107.1 960L331.1 966.6Z" fill="#d7a2af" stroke="#d7a2af"></path><path d="M448.9 30.4L389.1 77.4L431.9 101.2Z" fill="#423d3e" stroke="#423d3e"></path><path d="M138.7 6.4L171.9 47.4L178.3 20.4Z" fill="#92737b" stroke="#92737b"></path><path d="M56.6 34.4L76.7 90.2L118.7 51.8Z" fill="#a27f87" stroke="#a27f87"></path><path d="M511.4 43.4L448.9 30.4L475.4 78.2Z" fill="#423d3e" stroke="#423d3e"></path><path d="M475.4 78.2L448.9 30.4L431.9 101.2Z" fill="#81686e" stroke="#81686e"></path><path d="M343.6 0L342.7 0L362.1 46.8Z" fill="#b48a94" stroke="#b48a94"></path><path d="M348.1 0L343.6 0L362.1 46.8Z" fill="#615256" stroke="#615256"></path><path d="M395.3 0L348.1 0L362.1 46.8Z" fill="#92737b" stroke="#92737b"></path><path d="M228.4 0L172.3 0L214.4 15.4Z" fill="#51484a" stroke="#51484a"></path><path d="M166.9 0L138.7 6.4L178.3 20.4Z" fill="#c596a2" stroke="#c596a2"></path><path d="M172.3 0L166.9 0L178.3 20.4Z" fill="#a27f87" stroke="#a27f87"></path><path d="M32.1 50.4L-8.4 69.8L0 98.2Z" fill="#615256" stroke="#615256"></path><path d="M0 98.2L-8.4 69.8L0 169.6Z" fill="#81686e" stroke="#81686e"></path><path d="M-6.4 283.8L-8.4 69.8L-7.4 412.4Z" fill="#715d62" stroke="#715d62"></path><path d="M119.7 0L56.6 34.4L118.7 51.8Z" fill="#423d3e" stroke="#423d3e"></path><path d="M32.1 50.4L0 50.8L-8.4 69.8Z" fill="#a27f87" stroke="#a27f87"></path><path d="M544.4 39.8L540 73.8L540 152.2Z" fill="#81686e" stroke="#81686e"></path><path d="M540 152.2L540 73.8L475.4 78.2Z" fill="#92737b" stroke="#92737b"></path><path d="M0 848.4L0 924.6L4.6 910.2Z" fill="#92737b" stroke="#92737b"></path><path d="M4.6 910.2L0 924.6L35.6 899.6Z" fill="#92737b" stroke="#92737b"></path><path d="M-7.4 412.4L0 924.6L0 848.4Z" fill="#51484a" stroke="#51484a"></path><path d="M446.9 0L395.3 0L405.3 16.4Z" fill="#51484a" stroke="#51484a"></path><path d="M405.3 16.4L395.3 0L362.1 46.8Z" fill="#423d3e" stroke="#423d3e"></path><path d="M446.9 0L405.3 16.4L448.9 30.4Z" fill="#615256" stroke="#615256"></path><path d="M495.4 960L459.3 915.2L456.3 941.6Z" fill="#423d3e" stroke="#423d3e"></path><path d="M495.4 960L464.4 902.6L459.3 915.2Z" fill="#92737b" stroke="#92737b"></path><path d="M540 884.2L540 915.6L542.4 846.2Z" fill="#92737b" stroke="#92737b"></path><path d="M331.1 966.6L458.3 960L413.7 960Z" fill="#c596a2" stroke="#c596a2"></path><path d="M413.7 960L458.3 960L456.3 941.6Z" fill="#a27f87" stroke="#a27f87"></path><path d="M166.9 0L119.7 0L138.7 6.4Z" fill="#51484a" stroke="#51484a"></path><path d="M138.7 6.4L119.7 0L118.7 51.8Z" fill="#a27f87" stroke="#a27f87"></path><path d="M0 3.4L0 50.8L32.1 50.4Z" fill="#81686e" stroke="#81686e"></path><path d="M0 3.4L32.1 50.4L56.6 34.4Z" fill="#333333" stroke="#333333"></path><path d="M540 73.8L511.4 43.4L475.4 78.2Z" fill="#a27f87" stroke="#a27f87"></path><path d="M0 924.6L52.6 960L35.6 899.6Z" fill="#715d62" stroke="#715d62"></path><path d="M107.1 960L52.6 960L331.1 966.6Z" fill="#92737b" stroke="#92737b"></path><path d="M331.1 966.6L471.9 960L458.3 960Z" fill="#c596a2" stroke="#c596a2"></path><path d="M458.3 960L471.9 960L456.3 941.6Z" fill="#d7a2af" stroke="#d7a2af"></path><path d="M486.4 0L446.9 0L448.9 30.4Z" fill="#715d62" stroke="#715d62"></path><path d="M331.1 966.6L495.4 960L471.9 960Z" fill="#423d3e" stroke="#423d3e"></path><path d="M471.9 960L495.4 960L456.3 941.6Z" fill="#51484a" stroke="#51484a"></path><path d="M119.7 0L63.6 0L56.6 34.4Z" fill="#92737b" stroke="#92737b"></path><path d="M540 73.8L544.4 39.8L511.4 43.4Z" fill="#51484a" stroke="#51484a"></path><path d="M511.4 43.4L486.4 0L448.9 30.4Z" fill="#c596a2" stroke="#c596a2"></path><path d="M544.4 284.2L544.4 39.8L540 160Z" fill="#a27f87" stroke="#a27f87"></path><path d="M63.6 0L55.1 0L56.6 34.4Z" fill="#92737b" stroke="#92737b"></path><path d="M-7.4 412.4L0 960L0 924.6Z" fill="#423d3e" stroke="#423d3e"></path><path d="M0 924.6L0 960L52.6 960Z" fill="#c596a2" stroke="#c596a2"></path><path d="M52.6 960L0 960L331.1 966.6Z" fill="#615256" stroke="#615256"></path><path d="M540 9.4L486.4 0L511.4 43.4Z" fill="#c596a2" stroke="#c596a2"></path><path d="M331.1 966.6L540 960L495.4 960Z" fill="#b48a94" stroke="#b48a94"></path><path d="M495.4 960L540 960L540 915.6Z" fill="#615256" stroke="#615256"></path><path d="M540 915.6L540 960L542.4 846.2Z" fill="#81686e" stroke="#81686e"></path><path d="M55.1 0L0 3.4L56.6 34.4Z" fill="#a27f87" stroke="#a27f87"></path><path d="M0 50.8L0 3.4L-8.4 69.8Z" fill="#715d62" stroke="#715d62"></path><path d="M544.4 39.8L540 9.4L511.4 43.4Z" fill="#92737b" stroke="#92737b"></path><path d="M55.1 0L0 0L0 3.4Z" fill="#b48a94" stroke="#b48a94"></path><path d="M0 3.4L0 0L-8.4 69.8Z" fill="#a27f87" stroke="#a27f87"></path><path d="M544.4 39.8L540 0L540 9.4Z" fill="#715d62" stroke="#715d62"></path><path d="M540 9.4L540 0L486.4 0Z" fill="#423d3e" stroke="#423d3e"></path></g></svg>