<?xml version="1.0" encoding="utf-8"?>
<!-- Generator: Adobe Illustrator 24.1.1, SVG Export Plug-In . SVG Version: 6.00 Build 0)  -->
<svg version="1.1" id="Capa_1" xmlns="http://www.w3.org/2000/svg" xmlns:xlink="http://www.w3.org/1999/xlink" x="0px" y="0px"
	 viewBox="0 0 1050.9 704.4" style="enable-background:new 0 0 1050.9 704.4;" xml:space="preserve">
<style type="text/css">
	.st0{fill:#E5E5E5;}
	.st1{fill:#2F2E41;}
	.st2{fill:#E6E6E6;}
	.st3{fill:#FFFFFF;}
	.st4{fill:#E7C5CD;}
	.st5{fill:#9F616A;}
	.st6{fill:#3F3D56;}
</style>
<path class="st0" d="M1050.9,374.4c0,142.5-90.3,263.9-216.8,310c-19.2,7-39.1,12.3-59.3,15.6c-55.6,9.1-112.7,3.9-165.7-15.1
	c-127.3-45.8-218.2-167.6-218.2-310.6c0-182.2,147.8-329.9,330-329.9c68.9-0.1,136,21.4,192,61.6
	C996.4,165.8,1050.9,263.7,1050.9,374.4z"/>
<path class="st1" d="M834.1,684.4c-19.2,7-39.1,12.3-59.3,15.6c-55.6,9.1-112.7,3.9-165.7-15l15.2-61.2l0.9-3.7l31.1,0.1l156.2,0.6
	l2,5.9L834.1,684.4z"/>
<rect id="effaf695-3865-40c6-8918-ced0238239c2" class="st2" width="286.7" height="324.4"/>
<rect id="f33d627f-c769-4bde-9d74-ef156faf640e" x="5.1" y="6.9" class="st3" width="275.9" height="310.6"/>
<ellipse id="b5fd4af9-5b07-4da2-8ccf-5b3d4ac887f6" transform="matrix(7.088905e-02 -0.9975 0.9975 7.088905e-02 -157.0842 413.32)" class="st2" cx="143.3" cy="291" rx="15.5" ry="15.5"/>
<rect id="f05405a0-af73-4807-bbd1-d761cdd06c65" x="51.9" y="116.8" class="st2" width="88.8" height="9.1"/>
<rect id="a05e4a04-50b7-46b0-b842-8db21044ae7a" x="51.9" y="144.1" class="st4" width="134.1" height="9.1"/>
<rect id="bdce3bac-3998-4a72-bc14-4aa79023038d" x="51.9" y="171.5" class="st2" width="120.9" height="9.1"/>
<rect id="e1177af0-2f80-4461-b67e-43945f3b6fee" x="51.9" y="198.1" class="st4" width="186.7" height="9.1"/>
<rect id="b290cdc3-2096-427b-bfd4-6b657da823ea" x="53.8" y="223.5" class="st2" width="152.2" height="9.1"/>
<g id="b96c6486-fa38-4cba-8e5e-13dca7f44a0c">
	<path id="b0fbfc35-67c9-42b4-b2fe-33d0d7288754-222" class="st5" d="M407.6,527.8c1.1,1.1,2.1,2.3,3,3.6l140.1-3.4l16.3-29.9
		l48.3,18.8l-23.8,55.7c-3.9,9.2-13.5,14.8-23.5,13.6L409.8,567c-10.2,12.9-28.8,15-41.7,4.9c-12.9-10.2-15-28.8-4.9-41.7
		c10.2-12.9,28.8-15,41.7-4.9C405.8,526.1,406.7,526.9,407.6,527.8L407.6,527.8z"/>
	<path id="a6a8f1c9-3ab8-4f6f-ba9b-45acc2f7af89-223" class="st4" d="M596.2,357.2l65.6-21.5l19.3-26.4l93.7,5.5l13.8,30.8l50,23.6
		l-7.7,142.6l-13.1,133.5c-67.6-35-193.6-8.3-194.7-7.9L596.2,357.2z"/>
	<path id="fc06e97d-785e-4845-9aa0-60a5889f9ce3-224" class="st4" d="M610.2,550.3l-66.7-26.7l0.3-1.2
		c0.3-1.2,28.7-119.8,32.4-138.9c3.9-19.9,18.3-25.4,18.9-25.6l0.4-0.2l26.4,8l11.6,91.1L610.2,550.3z"/>
	<path id="b248559b-61d8-49e2-8eef-81cc9521c19e-225" class="st5" d="M754.2,639.6c1.6,0,3.1,0,4.7,0.3l92.7-105.1l-10.8-32.3
		l46.6-22.7l24.7,55.3c4.1,9.2,1.6,20-6,26.5L784.4,664.6c2.5,16.2-8.6,31.4-24.7,33.9c-16.2,2.5-31.4-8.6-33.9-24.7
		c-2.5-16.2,8.6-31.4,24.7-33.9C751.8,639.7,753,639.6,754.2,639.6L754.2,639.6z"/>
	<path id="b0e9bc84-32e8-4599-bd8d-d35670d3692b-226" class="st4" d="M844.2,545l-38.7-91l15.1-63.4l16.3-20.5c2.4-1,5.1-1,7.5,0.1
		c6,2.4,11.1,9.8,15.2,22l36.3,103.3L844.2,545z"/>
	<path id="b58b0f1b-b11b-4f57-8de2-a939101b4938-227" class="st1" d="M643.5,275.6V207c-0.2-50.8,40.9-92.1,91.6-92.2
		c50.8-0.2,92.1,40.9,92.2,91.6c0,0,0,0,0,0c0,0.2,0,0.4,0,0.6v68.6c0,6.8-5.5,12.3-12.3,12.4H655.9
		C649,288,643.5,282.4,643.5,275.6z"/>
	<circle id="ba54abe3-4119-45e5-b5c1-150877d750f7" class="st5" cx="716.5" cy="219" r="67.4"/>
	<path id="b6bcc4bf-1738-426f-8fbf-3ee273a728b5-228" class="st1" d="M621.8,212.5c0-40.1,32.6-72.7,72.7-72.7h13.7
		c40.1,0,72.7,32.6,72.7,72.7v1.4h-29l-9.9-27.7l-2,27.7h-15l-5-14l-1,14h-97.3V212.5z"/>
	<path id="be96ad09-85ff-4345-abef-5a49918f7c18-229" class="st1" d="M709.9,295.7c-2.8-3.8-3.2-8.8-1-12.9
		c14.5-27.7,34.9-78.8,7.9-110.3l-1.9-2.3h78.5V288l-71.3,12.6c-0.7,0.1-1.5,0.2-2.2,0.2C715.9,300.8,712.2,298.9,709.9,295.7
		L709.9,295.7z"/>
</g>
<g id="b2dad932-78e1-44e1-9682-073c8202f887">
	<path id="e043db59-b600-449e-8c52-e1eb73379667-230" class="st4" d="M143.1,25.3c-18.2,0-32.9,14.7-32.9,32.9
		c0,18.2,14.7,32.9,32.9,32.9c18.2,0,32.9-14.7,32.9-32.9v0C176,40,161.2,25.3,143.1,25.3C143.1,25.3,143.1,25.3,143.1,25.3
		L143.1,25.3z M143.1,35.1c5.4,0,9.9,4.4,9.9,9.9s-4.4,9.9-9.9,9.9c-5.4,0-9.9-4.4-9.9-9.9l0,0C133.2,39.5,137.6,35.1,143.1,35.1z
		 M143.1,82.6c-7.9,0-15.3-4-19.7-10.5c0.2-6.6,13.2-10.2,19.7-10.2s19.6,3.6,19.7,10.2C158.4,78.6,151,82.6,143.1,82.6L143.1,82.6z
		"/>
</g>
<path id="bcfa45dc-2c5a-4ac5-8376-9a2a23e225d0-231" class="st6" d="M143.5,296.9c13.5-24.8,46-40.6,72.6-26.4
	c12,6.4,21.5,17.7,24.5,31c3.5,15.5-3.9,30.3-11.5,43.3c-4.1,7.1-8.7,14-12.1,21.4c-3.5,7.7-6.1,16.6-3.4,25
	c2.4,7.6,8.4,13.1,15,17.1c7.3,4.3,15,7.7,23.1,10.3c16.6,5.5,34.1,7.8,51.5,6.7c8.7-0.6,17.3-2,25.7-4.1c8.9-2.3,17.7-5.2,26.7-7.4
	c15-3.7,32-5.6,46.2,1.9c13.8,7.3,19.9,22.4,21.9,37.2c3.5,27.2-7.3,55.5-26.8,74.6c-9.4,9.2-21.1,16.7-34,19.8
	c-11.2,2.7-25.6,2.5-34.5-5.8c-9.9-9.3-7.6-24.3,0.3-34.2c10.1-12.6,27.1-15.6,42.4-15.9c17.3-0.3,34.6,2.2,52,0.6
	c8.5-0.7,16.7-2.7,24.6-5.9c6.9-3,13.1-7.3,18.5-12.5c10.7-10.4,17.9-24.2,21.5-38.6c4.3-17.3,3.4-35.5,0-52.9
	c-1.8-9-4.1-17.8-6.9-26.5c-1.2-3.7-7-2.1-5.8,1.6c10.3,32.7,16.1,70.6-3.9,100.9c-8.3,12.9-21.1,22.1-35.9,25.9
	c-17.3,4.3-35.4,2.2-52.9,1.5c-16.7-0.6-35,0-49.3,9.8c-11.7,8-19.9,23.1-16.4,37.4c3.4,13.8,16.7,20.8,29.9,21.9
	c13.9,1.1,27.6-3.5,39.3-10.8c24.3-15.2,40.5-41.9,43.9-70.2c1.8-14.8,0-30.7-6.7-44.1c-3.5-7.3-9-13.4-15.8-17.7
	c-6.8-4.2-14.7-6.2-22.6-7c-17.9-1.7-35.2,4.5-52.2,9.2c-8.7,2.5-17.6,4.2-26.6,5.1c-8.8,0.7-17.6,0.6-26.3-0.4
	c-8.7-1-17.2-2.9-25.5-5.6c-8.1-2.5-15.9-6-23.1-10.4c-6.4-4.1-11.9-9.9-12.2-17.9c-0.3-8.6,4-16.7,8.2-24
	c8.2-14.4,18.3-28.5,20.4-45.3c1.9-14.7-4.1-29.3-14.3-39.8c-10.4-10.8-24.8-16.8-39.7-16.5c-15.2,0.4-29.7,7-40.9,17.2
	c-5.5,5-10.2,11-13.8,17.5C136.4,297.3,141.6,300.3,143.5,296.9L143.5,296.9z"/>
</svg>
