<?xml version="1.0" encoding="utf-8"?>
<!-- Generator: Adobe Illustrator 24.1.1, SVG Export Plug-In . SVG Version: 6.00 Build 0)  -->
<svg version="1.1" id="Capa_1" xmlns="http://www.w3.org/2000/svg" xmlns:xlink="http://www.w3.org/1999/xlink" x="0px" y="0px"
	 viewBox="0 0 910.9 705" style="enable-background:new 0 0 910.9 705;" xml:space="preserve">
<style type="text/css">
	.st0{fill:#3F3D56;}
	.st1{fill:#CACACA;}
	.st2{fill:#E6E6E6;}
	.st3{fill:#E4E4E4;}
	.st4{fill:#FFFFFF;}
	.st5{fill:#E7C5CD;}
	.st6{fill:#2F2E41;}
	.st7{fill:#FFB6B6;}
	.st8{opacity:0.2;enable-background:new    ;}
</style>
<ellipse class="st0" cx="697.3" cy="542.8" rx="48.5" ry="99"/>
<path class="st1" d="M692.8,704.8c19.4-116.6,0.2-232.7,0-233.8l-3.8,0.6c0.2,1.2,19.3,116.7,0,232.6L692.8,704.8z"/>
<rect x="673.7" y="510" transform="matrix(0.4717 -0.8818 0.8818 0.4717 -114.7021 878.3878)" class="st1" width="3.8" height="49.7"/>
<rect x="697.1" y="544.8" transform="matrix(0.8816 -0.4719 0.4719 0.8816 -172.5339 405.3813)" class="st1" width="49.7" height="3.8"/>
<ellipse class="st2" cx="813.9" cy="386.1" rx="94.9" ry="193.6"/>
<path class="st1" d="M803.3,702.7c37.9-227.7,0.4-454.5,0-456.8l-3.8,0.6c0.4,2.3,37.8,228.5,0,455.5L803.3,702.7z"/>
<rect x="769.5" y="322.1" transform="matrix(0.4717 -0.8818 0.8818 0.4717 80.6601 876.155)" class="st1" width="3.8" height="97.3"/>
<rect x="813.4" y="391.8" transform="matrix(0.8817 -0.4719 0.4719 0.8817 -83.8027 453.375)" class="st1" width="97.3" height="3.8"/>
<path class="st3" d="M593.5,703.3H88.9c-3.9,0-7-3.1-7-7V377.4c0-3.9,3.1-7,7-7h504.6c3.9,0,7,3.1,7,7v318.8
	C600.5,700.1,597.4,703.3,593.5,703.3z"/>
<path class="st4" d="M135.3,409.1c-1.7,0-3,1.3-3,3v249.6c0,1.7,1.3,3,3,3h411.8c1.7,0,3-1.3,3-3V412.1c0-1.7-1.3-3-3-3H135.3z"/>
<path class="st2" d="M551.1,473.4v-15.8h-58.2v-49.5h-15.8v49.5H373.4v-49.5h-15.8v49.5H197.7v-49.5h-15.8v49.5h-55.3v15.8h55.3
	v61.5h-55.3v15.8h55.3v65.9h-55.3v15.8h140.5v33.3h15.8v-33.3h74.7v33.3h15.8v-33.3h177.7v-15.8H373.4v-65.9h177.7v-15.8h-58.2
	v-61.5H551.1z M357.6,473.4v19.3H197.7v-19.3H357.6z M197.7,508.5h159.9v26.4H197.7L197.7,508.5z M197.7,616.6v-65.9h69.4v65.9
	H197.7z M357.6,616.6h-74.7v-65.9h74.7L357.6,616.6z M477.1,534.9H373.4v-61.5h103.7V534.9z"/>
<circle class="st5" cx="365.5" cy="544.8" r="20.2"/>
<polygon class="st1" points="910.5,705 0,705 0,702.8 910.9,702.8 "/>
<circle class="st5" cx="367.9" cy="300.1" r="124.7"/>
<polygon class="st5" points="369.1,502.7 329.8,435.4 290.4,368.2 368.3,367.7 446.3,367.2 407.7,435 "/>
<circle class="st4" cx="368.9" cy="299.3" r="44.7"/>
<path class="st6" d="M365,0.6c0,0-26.7-7.5-34.6,28.9s-2.9,31.9-2.9,31.9l59.5-7C387.1,54.5,405,11.7,365,0.6z"/>
<path class="st7" d="M326.2,160.5c0,0-40.2,1.9-33.3,17.7c0.5,1.1,1,2.2,1.4,3.1c5,11.4,10.7,22.5,17.2,33.2l24.7,41l9-5l-25.3-65.8
	l22.8-1.9L326.2,160.5z"/>
<path class="st7" d="M432.3,177.2l13,28.3c0,0,9.8,9.8,20.4,48.8s13,37.6,13,37.6l-10.6,3.5l-43.3-78.8l-21.4-26.9l6.5-14.4
	L432.3,177.2z"/>
<path class="st6" d="M416.5,144.7l18.7,34.8c0,0,42.4,83.3,38,83c-4.9-0.3-18.8,5.4-23,11c-2,2.7-32-63-42.5-77.7L385,178.2
	c0,0-64.6,10.9-64.7,7.3c0-1.7,21.4,39.8,17,38c-5-2.1-16.8,8.1-22,6c-2.1-0.9-17.3-37.6-23.4-52.7c-1.6-3.9,0-8.4,3.8-10.3
	c4.6-2.4,68.7-17,68.7-17l-1.1-5.7l4.6-9.3L416.5,144.7z"/>
<circle class="st7" cx="360.3" cy="39.3" r="18.1"/>
<path class="st1" d="M418.2,147.5c1,3-5.5,4.7-14.5,3c-7.8-1.5-16.4-3.2-23.1-4.6c-7.2-1.5-12.4-2.6-12.4-2.6s-1.9,11.6-7.9,10.2
	c-5.2-1.2-20.8-55.5-25-70.5c-0.6-2.3,0.3-4.6,2.3-5.9l21.4-13c0,0,14.7-5.1,20.1-5.2s14.7-1.5,14.7-1.5s10.7,0.9,12.5,8.8
	s9.6,54.7,9.8,66C416.2,144.5,415.2,138.5,418.2,147.5z"/>
<path class="st6" d="M367.1,16c0,0-7.5,19.9-25.9,28.2l-3-17.7L367.1,16z"/>
<ellipse class="st7" cx="378" cy="32.3" rx="2.6" ry="4.9"/>
<path class="st6" d="M352.7,260.2l-35.9,16.5l-0.2-0.5c-3.5-7.7-0.2-16.9,7.6-20.4l0,0l21.9-10.1L352.7,260.2z"/>
<path class="st6" d="M462.9,293.1l22-9.9l0,0c7.8-3.5,16.9,0,20.3,7.7l0.2,0.5l-36.1,16.2L462.9,293.1z"/>
<polygon class="st8" points="403.2,104.5 399,150.8 406.5,151.1 "/>
<path class="st7" d="M373.9,190.9c3.4-3.8,3-9.5-0.7-12.9c-0.4-0.4-0.8-0.7-1.3-1l-16.2-81.6l-18.6,7.1l21.7,78
	c-2.4,4.5-0.7,10,3.8,12.4C366.5,195,371.1,194.1,373.9,190.9z"/>
<path class="st1" d="M359.9,109.2l-20.4,3.6c-2.2,0.4-4.4-1.1-4.7-3.3c0-0.2-0.1-0.4-0.1-0.6l-0.6-20.6c-1.1-6.2,3.1-12.1,9.3-13.1
	c6.2-1.1,12,3.1,13.1,9.2l6.5,19.5c0.7,2.1-0.4,4.5-2.6,5.2C360.2,109.1,360.1,109.2,359.9,109.2L359.9,109.2z"/>
<path class="st7" d="M389.5,189.5c4.4-2.5,5.9-8.1,3.5-12.4c-0.3-0.5-0.6-0.9-0.9-1.3L403,93.2L383.1,94l-4.4,80.8
	c-3.7,3.5-3.9,9.3-0.4,13C381.2,190.9,385.9,191.6,389.5,189.5L389.5,189.5z"/>
<path class="st1" d="M402.4,107.6l-20.5-3.1c-2.2-0.3-3.8-2.4-3.4-4.7c0-0.2,0.1-0.4,0.1-0.6l6.1-19.7c1-6.2,6.8-10.4,13-9.5
	c6.2,1,10.4,6.8,9.5,13l-0.1,20.6c0,2.3-1.9,4.1-4.1,4.1C402.8,107.6,402.6,107.6,402.4,107.6L402.4,107.6z"/>
</svg>
